<svg width="1046" height="225" viewBox="0 0 1046 225" fill="none" xmlns="http://www.w3.org/2000/svg">
<path d="M130.275 25.7049C131.052 25.7049 131.386 25.8153 131.901 25.2429C131.901 24.4347 130.256 22.3041 129.667 21.8623L129 21C128.325 20.494 127.938 20.2675 127.38 19.608C126.255 18.2788 124.93 17.1609 123.953 15.6961C123.194 14.5569 122.378 13.4553 121.572 12.3339C121.09 11.6642 120.835 10.8743 120.375 10.2001C119.857 9.43992 119.193 8.79522 118.748 7.98014C118.127 6.84182 116.969 6.01716 116.366 4.8765C116.195 4.55111 114.761 1.93107 115.009 1.71898C115.348 1.42801 117.08 1.66093 117.595 1.68665C123.504 1.9821 129.372 2.66299 135.215 3.73419C138.998 4.42776 142.748 5.49625 146.476 6.42832C149.656 7.22323 152.625 8.26237 155.744 9.241C159.526 10.4274 163.626 10.8712 167.253 12.5925C168.9 13.3741 170.684 13.8981 172.415 14.4892C174.364 15.1548 176.284 15.95 178.202 16.6229C180.44 17.4082 182.68 18.0873 184.948 18.7567C186.562 19.2328 187.912 20.3542 189.571 20.7934C190.839 21.1291 191.898 21.8127 193.095 22.3345C194.853 23.1005 196.879 23.8773 198.387 25.0502C198.928 25.4713 199.568 25.5884 200.132 25.9446C200.802 26.3676 201.337 26.9802 202.008 27.3994C203.248 28.1747 204.445 28.898 205.553 29.8565C206.747 30.8901 207.863 31.9683 209.045 32.9925C210.001 33.8214 211.136 34.5495 211.868 35.5896C212.48 36.4593 213.354 37.1783 214.002 38.0574C214.674 38.9696 215.452 39.6912 216.243 40.4821C217.478 41.7173 218.163 43.6979 220.209 43.7798C220.449 43.9399 221.022 43.9344 221.305 44.0121C221.79 44.1457 222.157 44.4445 222.618 44.6105C223.251 44.8386 223.794 45.255 224.463 45.4333C225.194 45.6282 225.83 46.002 226.615 46.0317C227.431 46.0624 228.259 46.2774 229.054 46.443C229.514 46.5388 230.396 46.4883 230.654 47.004C230.837 47.3699 230.668 48.0181 230.7 48.4293C230.739 48.9371 231.276 49.5254 231.785 49.6178C232.438 49.7366 233.087 49.8529 233.771 49.9045C237.759 50.2055 241.78 49.875 245.763 50.1497L245.814 50.1531C246.155 50.1763 246.583 50.2053 246.877 50.3699C247.212 50.5575 247.043 50.9083 247.006 51.2217C246.878 52.3057 246.151 53.3546 245.406 54.1347C244.232 55.3647 243.252 56.8469 241.907 57.8912C241.272 58.3841 240.751 59.0073 240.095 59.4785C239.661 59.7909 239.209 59.9951 238.736 60.239C237.899 60.6713 237.174 61.5901 237.357 62.5951C237.403 62.8487 237.726 63.3089 237.914 63.4968C238.21 63.7929 238.491 64.1021 238.782 64.4027C239.999 65.6573 241.274 66.8571 242.51 68.0927C242.949 68.5319 243.482 69.0179 243.848 69.5138C244.281 70.1013 244.965 70.6115 245.306 71.2466C245.57 71.7375 245.366 72.6802 244.982 73.0334C244.146 73.8028 242.824 74.3001 241.791 74.7371C240.849 75.1357 239.732 75.2649 238.724 75.4269C237.835 75.5698 236.987 76.0056 236.081 76.0253C235.953 76.0281 234.628 76.0763 234.743 76.1915C235.046 76.4943 235.449 76.7321 235.786 77.0018C236.258 77.3797 236.714 77.7716 237.174 78.1612C237.528 78.4603 237.927 78.8707 238.329 79.0837C238.588 79.2206 238.778 79.2665 238.961 79.5075C239.147 79.7524 239.268 80.0262 239.489 80.2472C239.941 80.6993 240.249 81.1442 240.536 81.7182C240.753 82.1526 240.99 82.5684 241.205 82.9981C241.494 83.5766 241.392 84.2954 241.392 84.922C241.392 85.3801 241.218 85.5245 240.793 85.5245C240.339 85.5245 239.948 85.6691 239.505 85.7323C238.475 85.8795 237.42 85.7865 236.397 86.0066C235.886 86.1165 235.406 86.174 234.884 86.1977C234.567 86.2121 234.232 86.4124 234.323 86.7587C234.397 87.0388 234.518 87.2257 234.702 87.4443C235.034 87.8395 235.29 88.4377 235.524 88.907C235.772 89.4028 235.996 89.8864 236.264 90.3739C236.374 90.5747 236.818 91.4227 236.979 91.5831C237.451 92.2442 238.195 92.8085 238.849 93.2868C239.611 93.8447 240.119 94.7404 240.876 95.2814C241.251 95.549 241.916 95.9997 242.065 96.4823C242.155 96.7761 242.247 97.055 242.422 97.301C242.656 97.6277 243.189 98.6178 242.551 98.7595C240.733 99.1635 238.883 99.4379 237.012 99.603C236.261 99.6693 235.514 99.6612 234.76 99.6612C234.503 99.6612 233.122 99.5508 233.168 99.8482C233.252 100.39 233.635 100.962 233.837 101.473C234.058 102.032 234.182 102.632 234.323 103.214C234.464 103.793 234.742 104.31 234.918 104.872C235.082 105.397 235.224 105.944 235.408 106.459L235.562 107.5C235.7 107.886 236.233 108.768 235.562 108.936C235.232 109.018 235.041 109.299 234.677 109.368L234.594 109.384C234.241 109.452 233.858 109.525 233.505 109.534C232.309 109.567 231.303 110 230.156 110.224C229.612 110.331 229.09 110.509 228.552 110.623C228.054 110.729 227.563 110.749 227.072 110.848C226.662 110.93 226.198 110.922 225.801 111.047C225.417 111.168 225.535 111.783 225.535 112.086C225.535 112.879 225.809 113.24 226.191 113.898C226.498 114.424 226.659 114.761 227.13 115.144C227.347 115.32 227.491 115.603 227.671 115.813C227.882 116.062 228.147 116.272 228.385 116.495C229.023 117.093 229.636 117.846 230.338 118.36C231.255 119.033 232.17 119.725 233.147 120.305C233.843 120.718 234.426 121.456 234.951 122.063C235.367 122.544 235.707 123.01 235.707 123.654C235.707 123.913 235.791 124.261 235.595 124.456C235.258 124.794 234.89 125.076 234.506 125.358C234.003 125.728 233.483 126.086 232.956 126.422C232.672 126.603 232.483 126.825 232.158 126.958C231.993 127.026 231.758 127.056 231.614 127.166C231.119 127.544 230.58 127.933 230.023 128.217C229.619 128.423 229.125 128.45 228.734 128.658C227.81 129.149 226.66 128.982 225.643 128.982H224.076C223.732 128.982 223.351 129.042 223.037 128.874C222.617 128.648 222.675 129.557 222.618 129.813C222.53 130.206 222.395 130.589 222.285 130.976C222.165 131.401 222.174 131.841 222.057 132.264C221.857 132.985 221.945 133.81 221.945 134.55C221.945 135.18 222.055 135.995 222.393 136.553C222.578 136.857 222.736 137.307 222.838 137.646C222.952 138.026 223.184 138.333 223.332 138.689C223.541 139.186 223.769 139.674 224.001 140.164C224.105 140.383 224.139 140.653 224.263 140.858C224.449 141.163 224.637 141.362 224.637 141.735C224.637 141.917 224.5 142.301 224.5 142.5C224.5 142.64 223.627 143.554 223.5 144C223.199 145.052 223.403 144.612 222.831 145.485C222.231 146.401 221.97 147.541 221.342 148.445C220.238 150.036 219.517 152.136 218.889 153.964L218.889 153.964L218.827 154.143C218.449 155.245 218.08 156.426 217.672 157.514C217.286 158.544 217.14 159.693 216.671 160.697C215.71 162.757 214.868 164.882 214.173 167.045C213.904 167.881 213.578 168.754 213.249 169.578C212.876 170.509 212.988 171.515 212.753 172.47C212.312 174.256 211.521 176.234 211.521 178.082C211.521 180.163 211.367 182.331 211.367 184.448V186.843C211.367 187.279 211.226 188.017 211.444 188.409C211.613 188.713 211.967 189.763 212.291 189.855C212.814 190.005 213.523 189.872 214.07 189.872C214.643 189.872 215.165 189.564 215.747 189.564H218.177C219.661 189.564 220.391 191.191 220.453 192.49C220.49 193.273 220.607 194.035 220.607 194.834C220.607 195.944 220.055 196.297 219.452 197.102C218.802 197.968 216.382 198.65 215.371 198.65L213 198.15C212.663 197.952 210.5 197.5 211.5 198C212.304 198.497 214 199 213.42 199.42C212.94 200.092 212.197 200.576 211.752 201.268C211.096 202.288 209.365 202.799 208.252 202.997C206.675 203.277 204.949 203.424 203.358 203.424C202.972 203.424 202.003 203.613 201.818 203.168C201.722 202.935 201.404 202.791 200.5 202C196.5 198.5 201.242 206.816 199.046 207.856C198.005 208.35 196.699 208.814 195.504 208.814H193.468C192.767 208.814 192.078 208.11 191.654 207.565C190.555 206.152 191.078 203.308 190.5 202C190 195.5 190.478 206.927 190.268 207.702C189.938 208.919 189.503 210.314 188.232 210.816C187.645 211.048 187.118 211.277 186.538 211.501C185.535 211.888 184.733 211.894 183.663 211.894C182.335 211.894 180.416 212.189 179.214 211.432C177.909 210.611 177.601 208.009 177.5 206.5C177 205.5 177.004 207.957 177 208C176.946 208.543 176.638 208.887 176.442 209.396C176.002 210.542 175.68 211.733 175.09 212.818C174.374 214.137 172.836 213.742 171.557 213.742C169.731 213.742 168.836 212.241 168.477 210.585C168.357 210.036 168.4 209.46 168.4 208.9C168.4 208.15 168.264 209.431 168.229 209.61C168.045 210.526 167.779 212.305 166.791 212.664C166.505 212.768 166.486 213.144 166.209 213.246C165.97 213.335 165.649 213.28 165.397 213.28H160.622C159.571 213.28 158.513 210.876 158.004 210.141C157.494 209.404 155.927 209.276 155.078 209.276C154.811 209.276 154.722 209.006 154.471 208.934C154.105 208.83 153.685 208.711 153.307 208.669C152.411 208.569 151.626 208.371 150.92 207.822C149.825 206.97 152.075 209.195 152.075 210.269C152.075 211.312 152.233 211.879 151.802 212.938C151.513 213.647 150.428 214.326 149.825 214.744C149.334 215.083 148.81 215.219 148.234 215.291C147.792 215.346 147.615 215.745 147.147 215.745H140.217C138.709 215.745 136.983 215.953 135.511 215.591C134.184 215.264 132.894 214.444 131.576 214.205C130.813 214.066 130.027 213.813 129.283 213.589C128.573 213.374 127.82 213.421 127.11 213.263C124.761 212.742 122.196 212.973 119.752 212.973C118.775 212.973 117.668 213.121 116.706 212.938C115.776 212.761 113.794 211.652 112.882 211.424C111.718 211.546 110.757 211.181 109.656 210.936C109.021 210.795 108.421 210.858 107.774 210.782C106.975 210.689 106.201 210.413 105.395 210.363C103.578 210.249 101.671 210.279 99.8684 210.012C98.6665 209.834 97.4637 209.715 96.2579 209.55C95.3851 209.431 94.4813 209.525 93.6227 209.353C92.6215 209.153 91.5734 209.304 90.5597 209.157C89.4267 208.992 88.2307 208.968 87.0861 208.968H59.0576C56.6703 208.968 54.1814 209.18 51.8195 208.849C50.679 208.689 49.3795 208.69 48.2261 208.66C47.1129 208.632 46.0187 208.506 44.8979 208.506H41.1932C39.8725 208.506 38.4133 207.919 37.0865 207.736C33.7449 207.276 30.3376 206.444 26.9565 206.35C24.9183 206.294 22.7567 205.753 20.7729 205.256L20.5312 205.195C18.4718 204.681 16.1277 205.037 14.123 204.28C12.5594 203.689 10.4193 203.779 9.0323 202.808C7.77128 201.926 7.91669 202.524 6.5 202L3.5 201C3.02646 200.826 1.44327 200.335 1.9225 199.728C2.0789 199.53 2.69758 199.163 2.93207 199.121C3.88841 198.947 4.45008 198.324 5.31056 197.914C5.54774 197.802 5.85485 197.825 6.08058 197.692C6.47912 197.457 6.67405 197.012 7.12437 196.802C7.77272 196.5 8.61063 196.352 9.15208 195.878C10.0665 195.078 11.2281 194.535 12.1637 193.808C12.5343 193.52 13.1972 193.163 13.6353 192.944C14.3266 192.598 14.8262 192.067 15.4405 191.635C16.6618 190.775 18.1746 190.621 19.5302 190.035C20.9959 189.401 22.8248 189.041 24.3727 188.76C25.779 188.504 27.2407 188.026 28.642 187.879C31.3465 187.594 34.2277 187.524 36.8812 188.007C38.0742 188.224 39.5225 188.024 40.7312 188.024C42.4099 188.024 44.0666 188.3 45.7449 188.332C47.3533 188.363 48.9237 188.839 50.519 189.017C51.7887 189.158 52.8244 189.251 54.0611 189.581C54.6918 189.749 55.13 190.026 55.8235 190.026H63.2499C64.1311 190.026 62.4694 189.589 62.1719 189.41C61.6585 189.102 61.25 188.673 60.7516 188.341C59.6299 187.593 58.7148 186.662 57.6716 185.834C57.1141 185.391 56.7263 184.694 56.2855 184.14C55.723 183.433 54.9898 182.799 54.5231 182.035C54.264 181.611 53.849 181.316 53.5306 180.94C53.2235 180.577 53.11 180.117 52.829 179.742C52.244 178.962 51.6251 178.242 51.1264 177.398C49.5101 174.662 47.1349 172.093 46.1898 168.988C45.4316 166.496 43.7151 164.439 43.0413 161.912C42.5551 160.089 42.2058 157.644 42.6563 155.752C43.0615 154.05 42.7351 152.126 43.5001 150.5C44.0001 148 45.4915 146.749 46.5492 144.39C46.8956 143.617 47.4997 142.982 47.7812 142.165C48.039 141.418 48.3212 140.547 48.8934 139.975C49.5232 139.345 50.0834 138.608 50.5533 137.853C51.1032 136.969 51.9316 136.235 52.581 135.423C54.1903 133.412 56.128 131.7 58.0395 129.973C58.6296 129.441 59.1359 128.843 59.7421 128.322C60.307 127.837 60.9972 127.506 61.5388 127.013C62.7545 125.908 63.8704 124.467 65.2092 123.522C67.0029 122.256 68.2673 120.473 69.9148 119.048C71.3332 117.821 72.7306 116.598 74.1328 115.352C75.3074 114.308 76.6243 113.517 77.7177 112.374C79.2216 110.802 80.8137 109.367 82.3121 107.788C84.0779 105.928 85.7759 104.017 87.5824 102.21C88.6729 101.12 87.1971 100.623 86.4702 99.9343C86.1756 99.6553 85.6815 99.5339 85.3323 99.3269C84.8804 99.0591 84.6415 98.6767 84.2457 98.3601C83.5818 97.829 82.8457 97.3993 82.1581 96.8885C81.4646 96.3733 81.0731 95.8156 80.3101 95.434C79.863 95.2105 79.6458 94.6499 79.309 94.3132C78.9761 93.9803 78.1228 93.3641 78.0257 92.9272C77.9893 92.7637 79.0008 91.8922 79.155 91.7037C80.0864 90.5654 81.5384 89.8224 82.1666 88.4611C82.8092 87.0688 84.1696 86.2913 84.6392 84.765C84.7876 84.2829 85.2751 83.4983 85.7001 83.225C85.9617 83.0568 86.2571 82.9517 86.3161 82.686C86.6402 82.1999 86.8867 81.9305 87.3257 81.5738C87.6579 81.3039 87.2561 80.8341 87.0861 80.5642C86.7636 80.0519 86.4688 79.5349 86.1963 78.99C85.4425 77.4822 84.2782 75.9417 83.3045 74.5581C82.5286 73.4554 81.9508 72.3246 81.4222 71.0845C80.8598 69.765 80.0124 68.6474 79.4715 67.3028C78.7497 65.5086 77.8043 63.7728 77.1957 61.947C76.4463 59.6987 76.5287 57.1347 75.4332 55.0168C74.3589 52.9397 73.8509 50.779 73.1574 48.5829C72.647 46.9665 72.0702 45.611 71.8741 43.9115C71.6904 42.3195 71.132 40.686 70.6078 39.1716C70.2085 38.0182 69.9172 36.8309 69.41 35.7151C68.6107 33.9566 68.3456 32.0825 68.4518 30.171C68.5229 28.8902 70.9288 28.9292 71.7543 28.554C72.3631 28.2772 73.1656 28.1258 73.8419 27.938C74.57 27.7357 75.472 27.553 76.2289 27.553C77.1005 27.553 78.1528 27.3523 79.001 27.168C79.3391 27.0944 79.6589 27.091 80.002 27.091C80.3936 27.091 80.5062 26.8627 80.8661 26.8001C81.851 26.6288 83.0032 26.7146 84.0061 26.6375C85.2568 26.5413 86.4175 26.4739 87.6508 26.2525C89.2258 25.9698 90.9632 26.1669 92.5618 26.1669H97.2589C103.87 26.1669 110.418 25.8589 117.023 25.8589C119.969 25.8589 122.908 25.7049 125.861 25.7049H130.275Z" fill="#D9D9D9" stroke="black" stroke-width="3" stroke-linecap="round"/>
<path d="M87.5 107.5C87.9985 107.625 87.1961 108.93 87.7182 109.8C88.3581 110.867 88.5028 112.071 89.1641 113.137C89.6566 113.93 90.0243 114.777 90.6699 115.447C91.3672 116.171 91.848 117.019 92.5521 117.723C93.2819 118.452 94.2742 119.938 95.2729 120.204C96.3272 120.485 96.9755 121.535 97.9765 121.915C98.6241 122.161 98.9444 122.574 99.4908 122.882C100.022 123.181 100.692 123.485 101.176 123.831C102.551 124.813 104.053 125.643 105.642 126.261C107.207 126.87 108.83 127.817 110.493 128.186C112.001 128.521 113.855 128.884 115.259 129.547C117.026 130.38 119.093 130.022 120.769 130.933C122.081 131.646 123.981 131.755 125.44 131.891C127.275 132.062 129.073 132.332 130.907 132.516C133.057 132.731 135.237 132.543 137.367 132.969" stroke="black" stroke-width="3" stroke-linecap="round"/>
<path d="M177.642 86.735C176.975 86.0679 174.771 84.7964 175.206 83.7391L163.956 50.569C162.039 48.6526 162.374 45.4948 163.352 43.2948C163.562 42.8214 163.537 42.1702 163.869 41.743C164.343 41.1339 164.916 40.5868 165.518 40.105C166.311 39.471 166.987 39.003 167.727 38.2622C168.171 37.8185 168.38 37.2466 168.805 36.7966C169.183 36.3963 169.063 35.8236 169.387 35.4387C169.844 34.8962 170.1 34.3857 170.357 33.736C171.089 31.8843 172.458 30.5961 174.129 29.5332C176.062 28.3027 178.09 27.0696 180.25 26.2787C181.317 25.8879 182.479 25.139 183.547 24.8562C184.523 24.5979 185.727 24.77 186.726 24.77C188.714 24.77 190.782 24.5725 192.761 24.7808C194.037 24.915 196.159 24.9702 197.277 25.6321C198.371 26.2806 199.683 26.4058 200.531 27.4857C200.904 27.961 201.767 28.1796 202.298 28.4771C203.195 28.9789 203.966 29.4768 204.691 30.2013C205.629 31.1401 206.149 32.3095 207.212 33.1541C207.773 33.5991 208.285 34.1348 208.807 34.6197C209.259 35.0392 209.93 35.2079 210.435 35.5573C211.305 36.1595 211.953 36.7182 212.913 37.0875C213.297 37.235 213.746 37.5325 214.045 37.8096C215.094 38.7807 216.145 39.3596 216.804 40.6761C217.499 42.0661 218.184 43.5086 218.959 44.8466C219.253 45.355 219.866 45.5831 220.004 46.2045C220.167 46.9354 220.412 47.5688 220.748 48.2413C221.344 49.4337 221.937 50.7671 222.3 52.0346C222.513 52.78 222.925 53.0306 222.925 53.8666V56.0973C222.925 59.5152 223.139 63.0439 222.688 66.432C222.434 68.3368 222.749 70.533 221.879 72.2729C221.057 73.9179 221.232 75.8746 219.864 77.2948C218.777 78.4237 217.748 80.3614 216.329 81.1312C214.967 81.8708 213.836 82.9947 212.461 83.7283C209.005 85.5714 205.419 87.7117 201.544 88.4161C198.409 88.9861 195.475 89.3645 192.276 89.3645C189.672 89.3645 187.155 89.039 184.56 88.9765C183.204 88.9438 182.078 88.2793 180.788 87.9635C179.866 87.7377 178.352 87.4455 177.642 86.735Z" fill="white" stroke="black" stroke-width="3" stroke-linecap="round"/>
<path d="M170.982 90.1404C170.473 90.4854 170.36 91.5166 169.775 91.6922C169.205 93.1158 168.338 94.2925 167.253 95.3778C166.731 95.8998 166.316 96.5088 165.798 97.0266C165.217 97.6076 164.412 97.7447 163.805 98.3521C162.688 99.4684 161.219 100.515 159.731 101.046C159.047 101.29 158.586 101.908 157.953 102.264C157.159 102.711 156.361 103.267 155.517 103.611C152.979 104.645 149.946 104.495 147.252 104.495C144.8 104.495 142.367 104.555 139.935 104.312C137.475 104.066 135.008 103.511 132.531 103.32C131.102 103.21 129.61 102.346 128.199 102.016C127.165 101.774 126.66 101.277 125.828 100.658C124.95 100.005 124.055 99.3959 123.231 98.6754C122.629 98.1489 121.973 97.3572 121.28 96.9727C120.597 96.5929 120.202 95.6575 119.632 95.0868C119.014 94.4694 118.218 93.4783 117.746 92.7268C117.14 91.7614 116.741 90.7389 116.151 89.774C115.626 88.9152 115.073 88.1584 115.073 87.123V80.2368C115.073 78.6254 114.871 76.866 115.084 75.2688C115.229 74.1826 115.121 72.99 115.418 71.9496C115.836 70.4864 116.199 68.832 116.431 67.3157C116.753 65.2158 116.917 63.549 117.983 61.6688C118.296 61.1165 118.272 60.4338 118.565 59.8476C118.928 59.1211 119.234 58.383 119.61 57.6599C120.046 56.8211 120.127 55.7224 120.311 54.8042C120.714 52.7868 122.364 51.4043 123.899 50.2026C125.856 48.6708 128.492 47.4302 130.904 46.8942C132.979 46.4332 135.4 46.524 137.381 45.8165C139.062 45.2162 140.799 43.7798 142.661 43.7798H150.377C152.358 43.7798 154.292 44.3102 156.153 45.1376C156.979 45.5046 157.811 46.2474 158.632 46.7002C159.76 47.3228 160.701 48.2007 161.822 48.8232C163.133 49.5517 164.2 51.4933 165.216 52.6165C166.263 53.7739 167.061 55.5947 167.749 56.9703C168.463 58.3991 169.563 59.5493 170.368 60.9576C170.899 61.8876 171.071 63.0118 171.628 63.9103C172.178 64.7965 172.818 65.6574 173.159 66.6476C173.768 68.4199 174.905 70.1991 175.012 72.1005C175.08 73.29 175.4 74.352 175.4 75.5813V77.9629C175.4 79.5605 175.777 81.8458 175.303 83.362C175.01 84.3012 175.126 85.1314 174.667 86.0669C174.242 86.9348 173.563 87.7102 172.878 88.3946C172.213 89.0603 171.754 89.6167 170.982 90.1404Z" fill="white" stroke="black" stroke-width="3" stroke-linecap="round"/>
<path d="M204.915 57.522C204.287 57.522 203.539 57.3909 202.975 57.6729C202.318 58.0013 202.515 59.0276 202.975 59.4618C203.339 59.8053 204.14 59.6697 204.613 59.6558C206.148 59.6107 205.027 58.6045 204.527 58.104" stroke="black" stroke-width="3" stroke-linecap="round"/>
<path d="M157.748 72.6824C157.126 72.129 157.348 74.0282 157.36 74.3851C157.398 75.483 158.834 75.8689 159.731 75.5058C161.31 74.8667 161.165 73.7025 160.011 72.7686C159.359 72.2407 157.842 72.0002 158.912 73.0703" stroke="black" stroke-width="3" stroke-linecap="round"/>
<path d="M177.34 94.4078C177.414 95.0723 178.964 95.1837 179.474 95.1837C180.294 95.1837 180.444 96.581 180.444 97.2421C180.444 98.1683 180.397 99.1086 180.444 100.033C180.475 100.662 180.812 101.162 181.101 101.682C181.287 102.017 179.151 102.005 178.87 102.081C177.425 102.47 176.886 103.009 175.885 104.01C175.769 104.126 175.301 104.99 175.723 104.99C176.834 104.99 177.507 103.043 177.965 102.296C178.836 100.877 180.145 101.003 181.629 101.003C183.943 101.003 185.955 101.105 188.203 101.779" stroke="black" stroke-width="3" stroke-linecap="round"/>
<path d="M138.091 155.369C137.584 155.369 137.264 155.442 136.884 155.822C136.506 156.2 136.123 156.666 135.945 157.176C135.721 157.816 135.548 158.377 135.433 159.051C135.318 159.727 135.084 160.391 134.997 161.067C134.811 162.509 134.846 163.955 134.846 165.411C134.846 165.717 134.846 166.023 134.846 166.329C134.846 166.73 135.265 167.251 135.433 167.62C135.736 168.286 136.409 169.083 136.921 169.595C137.479 170.152 137.897 170.796 138.452 171.351C139.093 171.993 139.698 172.674 140.343 173.318C141.742 174.717 143.193 176.07 144.69 177.368C146.173 178.653 147.455 180.18 148.728 181.665C149.227 182.248 149.708 182.819 150.241 183.367C150.787 183.928 151.29 184.572 151.897 185.065C152.363 185.444 152.81 186.029 153.117 186.541C153.308 186.859 153.63 187.183 153.88 187.459C154.131 187.736 154.377 188.049 154.601 188.348C155.4 189.413 156.238 190.474 156.941 191.61C157.899 193.158 158.316 194.876 158.316 196.7C158.316 197.062 158.316 197.424 158.316 197.786C158.316 198.317 158.127 198.676 157.805 199.106C157.519 199.487 157.072 200.121 156.652 200.347C156.163 200.61 155.789 201.007 155.297 201.253C154.82 201.491 154.435 201.84 153.964 202.091C153.383 202.401 152.771 202.697 152.279 203.139C151.957 203.429 151.677 203.792 151.293 204.007C150.941 204.206 150.621 204.598 150.241 204.724" stroke="black" stroke-width="3" stroke-linecap="round"/>
<path d="M94.0945 168.802C94.1262 168.517 94.6843 167.971 94.8911 167.792C95.2988 167.439 95.7383 167.111 96.174 166.782C96.7691 166.331 97.5149 166.083 98.0942 165.633C98.5874 165.249 99.2245 165.122 99.7502 164.807C99.9657 164.678 100.302 164.636 100.547 164.572C100.785 164.51 100.989 164.351 101.23 164.291C101.868 164.132 102.626 164.088 103.243 163.864C104.099 163.552 105.061 163.647 105.959 163.557C107.478 163.406 109.035 163.52 110.563 163.52C112.155 163.52 113.746 163.52 115.338 163.52C115.581 163.52 115.824 163.506 116.063 163.553C116.955 163.729 117.832 163.979 118.713 164.199C118.963 164.261 119.05 164.341 119.225 164.501C119.89 165.111 120.976 165.407 121.799 165.733C122.296 165.93 122.781 166.132 123.266 166.362C124.495 166.944 125.893 167.318 127.065 168.01C127.535 168.288 127.717 169.138 127.995 169.591C128.192 169.91 128.379 170.22 128.507 170.572C128.865 171.556 129.838 172.242 130.377 173.121C130.758 173.741 131.039 174.418 131.408 175.045C131.699 175.538 132.038 175.929 132.146 176.5C132.258 177.094 132.562 177.672 132.809 178.219C133.027 178.705 133.144 179.176 133.303 179.678C133.538 180.416 133.563 181.126 133.563 181.891C133.563 183.913 133.867 186.344 132.892 188.185C132.47 188.981 132.355 189.92 132.054 190.763C131.793 191.495 131.312 192.162 131.002 192.876C130.801 193.337 130.609 193.736 130.335 194.159C130.03 194.629 129.647 195.109 129.262 195.517C128.933 195.865 128.798 196.334 128.469 196.691C127.952 197.254 127.415 197.825 126.952 198.431C126.524 198.99 125.988 199.406 125.581 199.97C125.241 200.44 124.935 200.919 124.612 201.416C124.372 201.786 124.017 202.001 123.757 202.343C123.518 202.656 123.271 202.959 123.015 203.257C122.397 203.975 121.66 204.61 120.944 205.219C120.648 205.47 120.289 205.544 120.038 205.856C119.839 206.103 119.526 206.225 119.342 206.46C119.09 206.781 118.459 207.186 118.093 207.37C117.644 207.594 117.243 207.933 116.885 208.271C116.708 208.438 116.447 208.483 116.248 208.682C116.092 208.838 115.91 208.945 115.753 209.101" stroke="black" stroke-width="3" stroke-linecap="round"/>
<path d="M190.389 155.7C190.161 156.041 189.535 156.093 189.235 156.392C189.114 156.513 189.004 156.632 188.84 156.695C188.549 156.807 188.166 157.092 187.943 157.315C187.608 157.65 187.335 158.028 186.994 158.356C186.729 158.612 186.351 158.889 186.235 159.264C185.616 161.277 185.405 163.13 185.405 165.227C185.405 167.436 185.126 169.689 185.318 171.897C185.345 172.208 185.509 172.498 185.569 172.805C185.641 173.172 185.65 173.561 185.702 173.933C185.8 174.627 186.09 175.331 186.287 176.004C186.63 177.182 187.288 178.312 187.753 179.455C188.201 180.555 188.76 181.587 189.168 182.711C189.345 183.197 189.494 183.672 189.748 184.136C190.028 184.65 190.051 185.186 190.184 185.746C190.594 187.482 190.481 189.273 190.481 191.048C190.481 191.663 190.481 192.279 190.481 192.894C190.481 193.394 190.443 193.86 190.394 194.355C190.356 194.73 190.394 195.543 190.394 195.92C190.436 196.24 190.394 197.383 190.394 197.703" stroke="black" stroke-width="3" stroke-linecap="round"/>
<path d="M644.115 63.8548C647.709 63.8548 655.855 62.1273 659.439 62.1273C663.525 62.1273 667.654 60.2192 671.532 59.0881C673.466 58.5238 675.37 56.3688 677.434 56.3688C679.035 56.3688 680.701 55.0062 682.201 54.4812C684.748 53.5898 687.272 52.556 689.895 51.9859C692.493 51.4211 694.838 50.148 697.445 49.6825C699.738 49.273 702.095 48.7508 704.307 48.0349C706.16 47.4355 708.348 47.343 710.114 46.5792C711.587 45.9424 713.46 46.3157 714.849 45.3636C716.44 44.2722 718.759 44.2491 720.623 43.8439C722.128 43.5169 724.19 43.1241 725.726 43.1241C727.108 43.1241 728.034 42.7228 729.309 42.3883C731.105 41.9174 733.298 41.8055 735.148 41.5565C736.784 41.3362 738.416 41.4422 740.058 41.3966C741.099 41.3676 741.928 40.8207 743.034 40.8207C747.396 40.8207 751.835 40.5328 756.246 40.5328C759.979 40.5328 763.567 40.8169 767.187 41.4605C771.496 42.2266 775.651 44.1908 779.92 45.1396C785.966 46.4831 791.469 48.7529 797.02 51.33C802.906 54.063 808.97 56.2416 815.287 57.9364C821.54 59.614 827.169 63.8694 832.899 66.7341C835.624 68.0969 838.712 69.508 840.897 71.6929C842.362 73.1579 843.678 74.7624 845.152 76.2357C846.488 77.5725 847.486 79.1769 848.607 80.6986C849.888 82.4376 851.504 83.7944 852.638 85.7373C853.815 87.7556 855.753 89.3291 857.133 91.2399C858.74 93.466 860.754 95.869 862.699 97.8143C864.339 99.4545 865.695 101.386 867.338 103.029C868.678 104.369 870.066 106.463 871.641 107.476C873.267 108.521 875.02 109.847 876.392 111.219C877.389 112.216 879.351 113.802 879.975 114.946C880.911 116.662 882.497 118.151 884.182 119.073C886.089 120.117 886.665 122.52 888.405 123.744C889.692 124.649 890.479 125.924 891.924 126.687C894.089 127.831 895.938 129.102 898.258 129.918C901.455 131.043 904.548 131.622 907.952 131.95C910.165 132.162 911.721 132.605 913.806 133.101C915.709 133.554 917.669 133.58 919.597 133.837C922.907 134.278 926.181 134.937 929.354 135.693C933.996 136.798 939.087 136.042 943.783 136.764C947.45 137.329 950.722 138.498 954.404 138.94C959.248 139.521 964.087 139.58 968.96 139.58H979.102C980.385 139.58 982.974 138.985 983.069 137.276C983.131 136.157 983.645 135.109 983.645 133.949V123.728C983.645 122.351 983.755 121.045 983.229 119.745C982.632 118.271 981.63 117.165 980.877 115.794C980.268 114.682 979.422 113.893 978.622 112.946C978.077 112.302 977.169 111.687 976.734 111.011C976.155 110.109 976.07 108.658 975.599 107.636C975.136 106.634 974.76 105.61 974.367 104.581C973.752 102.972 973.164 101.387 972.703 99.7178C972.358 98.4663 971.389 97.4194 971.264 96.1027C971.09 94.2784 970.112 92.6456 970.112 90.792C970.112 83.1587 969.531 74.102 976.59 69.1815C985.734 62.8084 997.153 61.6252 1008.01 63.295C1010.95 63.7473 1013.45 65.182 1016.05 66.4462C1016.97 66.8931 1017.69 67.511 1018.48 68.1578C1019.55 69.0244 1020.9 69.4263 1021.65 70.6371C1022.56 72.1141 1024.6 73.509 1025.97 74.5721C1027.12 75.4652 1028.24 76.9331 1029.12 78.0913C1029.87 79.0694 1030.95 79.6624 1031.73 80.6186C1034.67 84.2488 1036.67 88.6 1038.19 92.9515C1038.88 94.9223 1040.19 97.0972 1040.64 99.1259C1041.2 101.651 1041.64 104.192 1041.82 106.756C1042.02 109.565 1042.67 112.334 1042.67 115.17C1042.67 117.656 1042.9 120.329 1043.47 122.752C1044.21 125.912 1043.53 130.108 1043.53 133.341C1043.53 136.468 1041.26 139.215 1039.79 141.739C1038.64 143.725 1037.73 146.052 1036.93 148.201C1036.28 149.92 1035.31 151.457 1034.59 153.144C1033.79 155.007 1032.71 157.084 1031.44 158.679C1029.71 160.86 1028.25 163.53 1026.35 165.557C1023.38 168.73 1019.74 171.111 1016.24 173.619C1013.89 175.306 1011.53 177.034 1008.98 178.45C1007.27 179.401 1005.79 181.366 1004.25 182.625L1004.17 182.69C1003 183.645 1001.7 184.713 1000.33 185.344C999.611 185.675 998.664 186.239 997.913 186.448C997.139 186.663 996.369 187.376 995.61 187.376C994.564 187.376 992.565 187.722 991.595 188.095C990.679 188.448 989.315 188.354 988.891 189.455C988.386 190.768 987.522 192.189 986.524 193.134C985.345 194.251 984.069 194.911 982.717 195.789C980.844 197.007 984.305 198.506 985.308 198.829C986.614 199.248 989.036 198.556 989.115 200.684C989.16 201.907 989.115 203.139 989.115 204.363C989.115 205.172 988.593 205.834 988.523 206.667C988.434 207.739 987.883 208.986 987.324 209.898C986.394 211.413 985.238 213.289 983.357 213.289C982.705 213.289 980.362 212.94 980.205 213.881C979.996 215.137 980.477 216.486 980.477 217.768C980.477 220.396 978.439 222.503 975.871 222.503C973.635 222.503 969.145 223.352 967.297 221.575C966.439 220.751 965.355 218.699 964.289 218.248C962.347 217.426 959.785 217.338 957.699 217.096C951.943 216.429 945.693 217.032 939.896 217.032H903.473C901.664 217.032 899.734 217.217 897.938 216.968C896.473 216.765 894.435 216.749 893.092 216.152C890.17 214.854 886.625 214.976 883.526 214.121C878.803 212.818 873.985 212.119 869.21 210.986C862.363 209.361 854.823 210.122 847.807 210.122H818.79C810.44 210.122 802.176 209.594 793.885 208.826C786.41 208.134 779.041 208 771.5 208C768.023 208 724.967 208.237 721.5 208C699.656 208 672.154 207.53 650.337 207.53C644.329 207.53 638.54 206.667 632.55 206.667H617.849C614.639 206.667 611.599 206.191 608.38 205.947C604.04 205.618 599.599 205.227 595.247 205.227C593.206 205.227 591.62 204.368 589.664 204.139C587.181 203.849 584.662 203.627 582.21 203.148C581.228 202.955 580.294 202.609 579.331 202.412C578.603 202.263 577.776 201.825 577.092 201.772C574.029 201.536 571.03 200.908 567.942 200.908H548.587C544.876 200.908 540.069 201.219 536.638 202.796C533.914 204.047 530.731 204.232 527.84 204.955C523.606 206.014 519.339 206.955 514.931 206.955H484.795C481.471 206.955 477.989 206.756 474.75 206.027C470.749 205.127 466.356 205.515 462.273 205.515H426.634C425.974 205.515 423.597 205.652 423.339 206.235C422.672 207.735 423.339 210.286 423.339 211.993C423.339 213.956 423.234 216.103 421.035 216.888C419.664 217.378 417.751 217.032 416.316 217.032C414.393 217.032 412.465 217.069 410.542 217.032C407.977 216.983 405.775 214.247 405.775 211.785C405.775 210.564 405.843 209.326 405.775 208.106C405.735 207.385 403.726 208.776 403.184 209.034C400.534 210.296 397.885 210.835 394.962 210.186C392.44 209.625 389.638 209.376 388.515 206.571C387.382 203.737 390.478 201.89 392.259 200.332C393.995 198.813 392.513 199.181 390.963 199.181H387.636C385.735 199.181 382.502 197.973 382.181 195.725C381.972 194.26 381.565 190.008 382.566 188.932C381.308 189.634 380.127 190.553 378.854 191.119C377.286 191.815 376.156 193.377 374.615 194.062C373.39 194.606 370.978 196.424 370.136 197.453C369.401 198.352 368.787 197.462 367.785 197.901C366.932 198.274 366.084 198.813 365.305 199.308C361.991 201.418 358.515 201.196 354.684 201.196C352.582 201.196 350.299 201.308 348.494 200.044C346.378 198.563 345.802 197.299 344.671 195.15C343.433 192.797 342.558 194.574 340.64 194.574C338.944 194.574 337.313 194.46 335.649 194.302C332.24 193.977 328.862 192.601 326.883 189.743C326.207 188.766 326.272 185.243 326.883 184.272C327.434 183.398 328.102 182.575 328.755 181.777C329.221 181.207 329.095 180.557 329.618 180.033C330.031 179.621 332.601 177.68 330.914 177.586C329.385 177.501 328.725 174.853 327.859 173.987C326.488 172.616 325.769 171.56 325.427 169.684C325.253 168.723 324.648 166.909 325.443 166.069C328.143 163.22 331.507 161.493 335.345 160.902C335.988 160.803 337.042 161.091 336.385 160.086C335.71 159.054 335.188 158.43 334.817 157.159C334.285 155.335 334.945 153.665 334.945 151.897C334.945 149.25 335.643 146.351 337.6 144.538C339.008 143.235 341.514 143.248 343.295 143.323C346.05 143.437 349.209 143.773 351.069 145.898C351.797 146.731 352.746 147.249 353.372 148.153C353.842 148.832 354.772 149.849 355.5 150.185C356.631 150.707 358.069 149.571 359.099 149.241C362.641 148.108 366.305 147.279 369.928 146.474C371.62 146.098 372.921 144.716 374.551 144.25C376.159 143.791 377.798 143.334 379.414 142.747C381.049 142.152 382.456 141.403 384.181 141.019C386.227 140.564 387.96 139.478 389.843 138.716C390.971 138.259 392.297 138.241 393.394 137.692C394.751 137.014 395.96 136.461 397.377 135.965C398.795 135.468 399.831 134.343 401.232 133.821C403.018 133.157 405.309 132.85 406.575 131.358C407.191 130.631 409.322 130.553 410.238 130.35C411.567 130.055 412.63 129.118 413.981 128.91C415.55 128.669 416.841 127.612 418.316 127.135C418.865 126.957 419.038 126.426 419.66 126.271C420.252 126.123 420.831 125.868 421.435 125.775C421.994 125.689 422.502 125.811 423.051 125.615C425.072 124.893 427.297 125.152 429.241 124.288C430.752 123.616 432.225 123.126 433.928 122.656C435.867 122.121 438.103 121.795 440.102 121.728C441.356 121.686 442.269 120.972 443.51 120.848C444.408 120.759 445.332 120.666 446.229 120.56C448.133 120.336 449.742 120.001 451.715 120.001C453.046 120.001 454.684 120.188 454.083 118.625C453.537 117.205 452.995 116.341 452.995 114.674C452.995 113.074 452.934 111.458 452.995 109.859C453.085 107.515 453.859 105.129 453.859 102.725V96.9664C453.859 92.8393 454.435 88.7297 454.435 84.5856C454.435 83.1394 454.169 81.4285 454.723 80.0747C455.506 78.1589 456.45 76.2285 456.45 74.0762C456.45 72.6199 456.908 71.2477 457.358 69.8974L457.378 69.8373C458.07 67.7601 458.288 65.6284 458.754 63.5349C459.003 62.4139 458.952 61.244 459.905 60.4637C460.513 59.9664 461.022 59.256 461.345 58.5282C461.672 57.7932 462.4 57.2443 462.785 56.4967C463.095 55.8938 463.498 55.1571 463.936 54.6412C466.211 51.9656 467.373 47.7575 470.159 45.4115C471.601 44.1973 472.689 42.9546 474.158 41.8124C475.402 40.8447 476.866 39.8558 477.981 38.7412C481.248 35.4739 484.996 32.3511 488.922 29.8794C490.67 28.7789 492.953 27.7816 494.905 27.2241C496.872 26.6621 498.711 25.4753 500.663 24.8247C502.654 24.161 504.566 23.235 506.55 22.5533C508.077 22.0284 509.639 21.7772 511.156 21.2416C511.881 20.9859 512.736 20.1985 513.46 20.0899C515.781 19.7417 518.694 19.2859 520.882 18.4263C521.761 18.081 522.332 17.4037 523.297 17.2107C524.059 17.0583 525.31 17.1537 525.985 16.7788C526.48 16.5033 527.233 16.5843 527.792 16.4109C529.068 16.0149 530.57 15.7456 531.887 15.5471C534.463 15.1589 537.073 14.0712 539.581 13.3396C541.258 12.8507 542.694 12.3937 544.412 12.012C546.605 11.5246 548.926 11.4862 551.114 10.8763C552.166 10.5832 552.98 10.0993 553.914 9.58059C554.416 9.30128 554.988 9.58698 555.497 9.37264C556.532 8.93707 557.965 8.96805 559.064 8.86077C560.329 8.73735 561.61 8.28492 562.871 8.28492C565.019 8.28492 567.013 7.64362 569.078 7.43713C570.817 7.26324 572.689 7.42114 574.436 7.42114C575.209 7.42114 576.039 7.32788 576.804 7.43713C577.609 7.5521 577.225 8.53402 577.668 9.02073C578.671 10.1249 578.193 12.421 578.755 13.7555C579.204 14.8205 579.065 16.969 579.107 18.1384C579.125 18.637 579.327 22.3123 579.555 22.3773C580.832 22.7423 582.336 22.0503 583.602 22.5373C586.185 23.5307 589.381 23.4436 592.064 24.0569C595.405 24.8207 599.398 25.2726 602.781 25.2726C605.311 25.2726 607.807 25.8485 610.363 25.8485C611.702 25.8485 612.956 26.4693 614.298 26.6483C615.44 26.8005 616.606 26.6752 617.753 26.7122C620.294 26.7942 622.829 27.4237 625.351 27.56C628.104 27.7088 630.813 28.2419 633.541 28.4238C635.563 28.5586 637.504 29.4827 639.572 29.5915C642.82 29.7625 646.505 29.3338 649.633 30.3113C651.451 30.8794 653.574 30.6486 655.44 31.0631C656.213 31.2349 657.292 31.4772 657.999 31.8309C658.718 32.1901 658.258 32.5037 658.063 33.1106C657.796 33.9403 657.708 34.7227 657.279 35.494C656.931 36.1207 657.041 36.9385 656.688 37.4935C655.904 38.7254 654.902 39.7257 654.32 41.1086C653.655 42.6873 653.28 44.0999 651.953 45.4275C651.274 46.1062 650.556 46.6646 649.825 47.283C649.246 47.7733 648.584 47.7757 648.066 48.1788C645.036 50.5349 643.602 53.6996 641.731 56.8166C641.245 57.6276 640.171 58.4424 640.148 59.4399C640.13 60.1907 640.148 60.9442 640.148 61.6954C640.148 63.856 642.319 63.8554 644.036 63.8548L644.115 63.8548Z" fill="#F8F8F8"/>
<path d="M383.029 188.687C381.593 189.405 380.282 190.484 378.854 191.119C377.286 191.815 376.156 193.377 374.615 194.062C373.39 194.606 370.978 196.424 370.136 197.453C369.401 198.352 368.787 197.462 367.785 197.901C366.932 198.274 366.084 198.813 365.305 199.308C361.991 201.418 358.515 201.196 354.684 201.196C352.582 201.196 350.299 201.308 348.494 200.044C346.378 198.563 345.802 197.299 344.671 195.15C343.433 192.797 342.558 194.574 340.64 194.574C338.944 194.574 337.313 194.46 335.649 194.302C332.24 193.977 328.862 192.601 326.883 189.743C326.207 188.766 326.272 185.243 326.883 184.272C327.434 183.398 328.102 182.575 328.755 181.777C329.221 181.207 329.095 180.557 329.618 180.033C330.031 179.621 332.601 177.68 330.914 177.586C329.385 177.501 328.725 174.853 327.859 173.987C326.488 172.616 325.769 171.56 325.427 169.684C325.253 168.723 324.648 166.909 325.443 166.069C328.143 163.22 331.507 161.493 335.345 160.902C335.988 160.803 337.042 161.091 336.385 160.086C335.71 159.054 335.188 158.43 334.817 157.159C334.285 155.335 334.945 153.665 334.945 151.897C334.945 149.25 335.643 146.351 337.6 144.538C339.008 143.235 341.514 143.248 343.295 143.323C346.05 143.437 349.209 143.773 351.069 145.898C351.797 146.731 352.746 147.249 353.372 148.153C353.842 148.832 354.772 149.849 355.5 150.185C356.631 150.707 358.069 149.571 359.099 149.241C362.641 148.108 366.305 147.279 369.928 146.474C371.62 146.098 372.921 144.716 374.551 144.25C376.159 143.791 377.798 143.334 379.414 142.747C381.049 142.152 382.456 141.403 384.181 141.019C386.227 140.564 387.96 139.478 389.843 138.716C390.971 138.259 392.297 138.241 393.394 137.692C394.751 137.014 395.96 136.461 397.377 135.965C398.795 135.468 399.831 134.343 401.232 133.821C403.018 133.157 405.309 132.85 406.575 131.358C407.191 130.631 409.322 130.553 410.238 130.35C411.567 130.055 412.63 129.118 413.981 128.91C415.55 128.669 416.841 127.612 418.316 127.135C418.865 126.957 419.038 126.426 419.66 126.271C420.252 126.123 420.831 125.868 421.435 125.775C421.994 125.689 422.502 125.811 423.051 125.615C425.072 124.893 427.297 125.152 429.241 124.288C430.752 123.616 432.225 123.126 433.928 122.656C435.867 122.121 438.103 121.795 440.102 121.728C441.356 121.686 442.269 120.972 443.51 120.848C444.408 120.759 445.332 120.666 446.229 120.56C448.133 120.336 449.742 120.001 451.715 120.001C453.046 120.001 454.684 120.188 454.083 118.625C453.537 117.205 452.995 116.341 452.995 114.674C452.995 113.074 452.934 111.458 452.995 109.859C453.085 107.515 453.859 105.129 453.859 102.725V96.9664C453.859 92.8393 454.435 88.7297 454.435 84.5856C454.435 83.1394 454.169 81.4285 454.723 80.0747C455.506 78.1589 456.45 76.2285 456.45 74.0762C456.45 72.6199 456.908 71.2477 457.358 69.8974L457.378 69.8373C458.07 67.7601 458.288 65.6284 458.754 63.5349C459.003 62.4139 458.952 61.244 459.905 60.4637C460.513 59.9664 461.022 59.256 461.345 58.5282C461.672 57.7932 462.4 57.2443 462.785 56.4967C463.095 55.8938 463.498 55.1571 463.936 54.6412C466.211 51.9656 467.373 47.7575 470.159 45.4115C471.601 44.1973 472.689 42.9546 474.158 41.8124C475.402 40.8447 476.866 39.8558 477.981 38.7412C481.248 35.4739 484.996 32.3511 488.922 29.8794C490.67 28.7789 492.953 27.7816 494.905 27.2241C496.872 26.6621 498.711 25.4753 500.663 24.8247C502.654 24.161 504.566 23.235 506.55 22.5533C508.077 22.0284 509.639 21.7772 511.156 21.2416C511.881 20.9859 512.736 20.1985 513.46 20.0899C515.781 19.7417 518.694 19.2859 520.882 18.4263C521.761 18.081 522.332 17.4037 523.297 17.2107C524.059 17.0583 525.31 17.1537 525.985 16.7788C526.48 16.5033 527.233 16.5843 527.792 16.4109C529.068 16.0149 530.57 15.7456 531.887 15.5471C534.463 15.1589 537.073 14.0712 539.581 13.3396C541.258 12.8507 542.694 12.3937 544.412 12.012C546.605 11.5246 548.926 11.4862 551.114 10.8763C552.166 10.5832 552.98 10.0993 553.914 9.58059C554.416 9.30128 554.988 9.58698 555.497 9.37264C556.532 8.93707 557.965 8.96805 559.064 8.86077C560.329 8.73735 561.61 8.28492 562.871 8.28492C565.019 8.28492 567.013 7.64362 569.078 7.43713C570.817 7.26324 572.689 7.42114 574.436 7.42114C575.209 7.42114 576.039 7.32788 576.804 7.43713C577.609 7.5521 577.225 8.53402 577.668 9.02073C578.671 10.1249 578.193 12.421 578.755 13.7555C579.204 14.8205 579.065 16.969 579.107 18.1384C579.125 18.637 579.327 22.3123 579.555 22.3773C580.832 22.7423 582.336 22.0503 583.602 22.5373C586.185 23.5307 589.381 23.4436 592.064 24.0569C595.405 24.8207 599.398 25.2726 602.781 25.2726C605.311 25.2726 607.807 25.8485 610.363 25.8485C611.702 25.8485 612.956 26.4693 614.298 26.6483C615.44 26.8005 616.606 26.6752 617.753 26.7122C620.294 26.7942 622.829 27.4237 625.351 27.56C628.104 27.7088 630.813 28.2419 633.541 28.4238C635.563 28.5586 637.504 29.4827 639.572 29.5915C642.82 29.7625 646.505 29.3338 649.633 30.3113C651.451 30.8794 653.574 30.6486 655.44 31.0631C656.213 31.2349 657.292 31.4772 657.999 31.8309C658.718 32.1901 658.258 32.5037 658.063 33.1106C657.796 33.9403 657.708 34.7227 657.279 35.494C656.931 36.1207 657.041 36.9385 656.688 37.4935C655.904 38.7254 654.902 39.7257 654.32 41.1086C653.655 42.6873 653.28 44.0999 651.953 45.4275C651.274 46.1062 650.556 46.6646 649.825 47.283C649.246 47.7733 648.584 47.7757 648.066 48.1788C645.036 50.5349 643.602 53.6996 641.731 56.8166C641.245 57.6276 640.171 58.4424 640.148 59.4399C640.13 60.1907 640.148 60.9442 640.148 61.6954C640.148 63.856 642.319 63.8554 644.036 63.8548L644.115 63.8548C647.709 63.8548 655.855 62.1273 659.439 62.1273C663.525 62.1273 667.654 60.2192 671.532 59.0881C673.467 58.5238 675.37 56.3688 677.434 56.3688C679.035 56.3688 680.701 55.0062 682.201 54.4812C684.748 53.5898 687.272 52.556 689.895 51.9859C692.493 51.4211 694.838 50.148 697.445 49.6825C699.738 49.273 702.095 48.7508 704.307 48.0349C706.16 47.4355 708.348 47.343 710.114 46.5792C711.587 45.9424 713.46 46.3157 714.849 45.3636C716.44 44.2722 718.759 44.2491 720.623 43.8439C722.128 43.5169 724.19 43.1241 725.726 43.1241C727.108 43.1241 728.034 42.7228 729.309 42.3883C731.105 41.9174 733.298 41.8055 735.148 41.5565C736.784 41.3362 738.416 41.4422 740.058 41.3966C741.099 41.3676 741.928 40.8207 743.034 40.8207C747.396 40.8207 751.835 40.5328 756.246 40.5328C759.979 40.5328 763.567 40.8169 767.187 41.4605C771.496 42.2266 775.651 44.1908 779.92 45.1396C785.966 46.4831 791.469 48.7529 797.02 51.33C802.906 54.063 808.97 56.2416 815.287 57.9364C821.54 59.614 827.169 63.8694 832.899 66.7341C835.624 68.0969 838.712 69.508 840.897 71.6929C842.362 73.1579 843.678 74.7624 845.152 76.2357C846.488 77.5725 847.486 79.1769 848.607 80.6986C849.888 82.4376 851.504 83.7944 852.638 85.7373C853.815 87.7556 855.753 89.3291 857.133 91.2399C858.74 93.466 860.754 95.869 862.699 97.8143C864.339 99.4545 865.695 101.386 867.338 103.029C868.678 104.369 870.066 106.463 871.641 107.476C873.267 108.521 875.02 109.847 876.392 111.219C877.389 112.216 879.351 113.802 879.975 114.946C880.911 116.662 882.497 118.151 884.182 119.073C886.089 120.117 886.665 122.52 888.405 123.744C889.692 124.649 890.479 125.924 891.924 126.687C894.089 127.831 895.938 129.102 898.258 129.918C901.455 131.043 904.548 131.622 907.952 131.95C910.165 132.162 911.721 132.605 913.806 133.101C915.709 133.554 917.669 133.58 919.597 133.837C922.907 134.278 926.181 134.937 929.354 135.693C933.996 136.798 939.087 136.042 943.783 136.764C947.45 137.329 950.722 138.498 954.404 138.94C959.248 139.521 964.087 139.58 968.96 139.58H979.102C980.385 139.58 982.974 138.985 983.069 137.276C983.131 136.157 983.645 135.109 983.645 133.949V123.728C983.645 122.351 983.755 121.045 983.229 119.745C982.632 118.271 981.629 117.165 980.877 115.794C980.268 114.682 979.422 113.893 978.622 112.946C978.077 112.302 977.169 111.687 976.734 111.011C976.155 110.109 976.07 108.658 975.599 107.636C975.136 106.634 974.76 105.61 974.367 104.581C973.752 102.972 973.164 101.387 972.703 99.7178C972.358 98.4663 971.389 97.4194 971.264 96.1027C971.09 94.2784 970.112 92.6456 970.112 90.792C970.112 83.1587 969.531 74.1019 976.59 69.1815C985.734 62.8084 997.153 61.6252 1008.01 63.295C1010.95 63.7473 1013.45 65.182 1016.05 66.4462C1016.97 66.8931 1017.69 67.511 1018.48 68.1578C1019.55 69.0244 1020.9 69.4263 1021.65 70.6371C1022.56 72.1141 1024.6 73.509 1025.97 74.5721C1027.12 75.4652 1028.24 76.9331 1029.12 78.0913C1029.87 79.0694 1030.95 79.6624 1031.73 80.6186C1034.67 84.2488 1036.67 88.6 1038.19 92.9515C1038.88 94.9223 1040.19 97.0972 1040.64 99.1259C1041.2 101.651 1041.64 104.192 1041.82 106.756C1042.02 109.565 1042.67 112.334 1042.67 115.17C1042.67 117.656 1042.9 120.329 1043.47 122.752C1044.21 125.912 1043.53 130.108 1043.53 133.341C1043.53 136.468 1041.26 139.215 1039.79 141.739C1038.64 143.725 1037.73 146.052 1036.93 148.201C1036.28 149.92 1035.31 151.457 1034.59 153.144C1033.79 155.007 1032.71 157.084 1031.44 158.679C1029.71 160.86 1028.25 163.53 1026.35 165.557C1023.38 168.731 1019.74 171.111 1016.24 173.619C1013.89 175.306 1011.53 177.034 1008.98 178.45C1007.27 179.401 1005.79 181.366 1004.25 182.625L1004.17 182.69C1003 183.645 1001.7 184.713 1000.33 185.344C999.611 185.675 998.664 186.239 997.913 186.448C997.139 186.663 996.369 187.376 995.61 187.376C994.564 187.376 992.565 187.722 991.595 188.095C990.679 188.448 989.315 188.354 988.891 189.455C988.386 190.768 987.522 192.189 986.524 193.134C985.345 194.251 984.069 194.911 982.717 195.789C980.844 197.007 984.305 198.506 985.308 198.829C986.614 199.248 989.036 198.556 989.115 200.684C989.16 201.907 989.115 203.139 989.115 204.363C989.115 205.172 988.593 205.834 988.523 206.667C988.434 207.739 987.883 208.986 987.324 209.898C986.394 211.413 985.238 213.289 983.357 213.289C982.705 213.289 980.362 212.94 980.205 213.881C979.996 215.137 980.477 216.486 980.477 217.768C980.477 220.396 978.439 222.503 975.871 222.503C973.635 222.503 969.145 223.352 967.297 221.575C966.439 220.751 965.355 218.699 964.289 218.248C962.347 217.426 959.785 217.338 957.699 217.096C951.943 216.429 945.693 217.032 939.896 217.032H903.473C901.664 217.032 899.734 217.217 897.938 216.968C896.473 216.765 894.435 216.749 893.092 216.152C890.17 214.854 886.625 214.976 883.526 214.121C878.803 212.818 873.985 212.119 869.21 210.986C862.363 209.361 854.823 210.122 847.807 210.122H818.79C810.44 210.122 802.176 209.594 793.885 208.826C786.41 208.134 779.041 208 771.5 208C768.023 208 724.967 208.237 721.5 208C699.656 208 672.154 207.53 650.337 207.53C644.329 207.53 638.54 206.667 632.55 206.667H617.849C614.639 206.667 611.599 206.191 608.38 205.947C604.04 205.618 599.599 205.227 595.247 205.227C593.206 205.227 591.62 204.368 589.664 204.139C587.181 203.849 584.662 203.627 582.21 203.148C581.228 202.955 580.294 202.609 579.331 202.412C578.603 202.263 577.776 201.825 577.092 201.772C574.029 201.536 571.03 200.908 567.942 200.908H548.587C544.876 200.908 540.069 201.219 536.638 202.796C533.914 204.047 530.731 204.232 527.84 204.955C523.606 206.014 519.339 206.955 514.931 206.955H484.795C481.471 206.955 477.989 206.756 474.75 206.027C470.749 205.127 466.356 205.515 462.273 205.515H426.634C425.974 205.515 423.597 205.652 423.339 206.235C422.672 207.735 423.339 210.286 423.339 211.993C423.339 213.956 423.234 216.103 421.035 216.888C419.664 217.378 417.751 217.032 416.316 217.032C414.393 217.032 412.465 217.069 410.542 217.032C407.977 216.983 405.775 214.247 405.775 211.785C405.775 210.564 405.843 209.326 405.775 208.106C405.735 207.385 403.726 208.776 403.184 209.034C400.534 210.296 397.885 210.835 394.962 210.186C392.44 209.625 389.638 209.376 388.515 206.571C387.382 203.737 390.478 201.89 392.259 200.332C393.995 198.813 392.513 199.181 390.963 199.181H387.636C385.735 199.181 382.502 197.973 382.181 195.725C381.945 194.071 381.456 188.862 383.029 188.687ZM383.029 188.687C384.92 187.742 386.741 186.464 388.691 185.648C390.652 184.827 392.609 184.153 394.514 183.201C396.563 182.176 398.836 180.934 401.04 180.241C402.352 179.829 403.923 178.97 405.199 178.738C406.523 178.497 408.809 177.7 409.982 176.978C411.408 176.101 412.746 174.995 414.573 174.995C419.214 174.995 423.325 172.689 427.786 171.763C430.23 171.256 432.685 170.072 435.128 169.828C436.405 169.7 437.232 168.66 438.407 168.388C439.683 168.094 440.981 168.034 442.246 167.732C443.499 167.434 444.683 167.01 445.957 166.709C447.232 166.407 448.222 165.432 449.54 165.061C450.562 164.774 452.456 164.378 453.283 163.638C454.163 162.85 455.499 162.77 456.562 162.198C460.368 160.149 464.612 159.598 468.543 157.943C470.612 157.072 472.856 155.796 475.038 155.4C478.756 154.723 482.507 154.275 486.219 153.704C489.024 153.273 491.701 152.372 494.553 152.248C496.425 152.167 498.305 151.464 500.151 151.161C501.325 150.968 502.583 150.233 503.67 150.233C505.553 150.233 507.332 149.432 509.205 149.369C511.149 149.304 513.531 149.266 515.411 148.729C516.955 148.288 518.609 148.578 520.21 148.441C521.25 148.353 521.904 147.642 522.849 147.642C524.889 147.642 526.872 146.996 528.864 146.762C532.509 146.333 535.4 144.597 538.797 143.323" stroke="black" stroke-width="3" stroke-linecap="round"/>
<path d="M872.217 128.351C875.882 128.351 879.351 128.754 882.918 129.646C884.596 130.066 885.885 130.756 887.349 131.678C888.819 132.603 890.581 132.813 891.86 134.045C892.813 134.962 894.261 135.372 895.395 136.013C897.117 136.986 898.564 138.65 900.274 139.724C902.452 141.092 904.553 142.378 906.8 143.627C908.637 144.647 910.353 146.317 912.191 147.21C916.491 149.299 920.6 151.339 924.556 153.976C925.939 154.899 927.263 155.922 928.651 156.855C929.585 157.484 930.625 157.98 931.53 158.647C932.038 159.021 932.346 159.627 932.873 159.959C934.351 160.886 935.231 162.159 936.601 163.174C938.253 164.397 940.027 165.554 941.559 166.933C942.93 168.166 944.432 169.139 945.91 170.356C946.684 170.993 947.646 171.338 948.39 172.003C949.117 172.655 949.724 173.451 950.549 173.987C952.131 175.015 953.603 176.387 955.076 177.586C956.266 178.555 956.943 178.938 958.307 179.602C960.286 180.564 961.972 182.061 964.194 182.465C965.028 182.616 965.328 183.325 966.081 183.569C967.052 183.883 968.024 184.139 968.96 184.56C970.34 185.181 972.266 185.36 973.791 185.36C975.468 185.36 977.052 185.33 978.334 184.048C979.595 182.787 981.809 182.281 982.925 181.041C984.715 179.052 989.568 180.217 991.195 181.617C993.369 183.488 992.284 185.646 990.555 187.376" stroke="black" stroke-width="3" stroke-linecap="round"/>
<path d="M420.315 175.874C419.995 176.899 398.606 182.739 397.857 183.489C396.903 184.867 388.355 186.152 386.357 187.51C386.248 187.621 386.136 187.726 386.02 187.823C384.614 189.013 383.091 188.98 381.285 188.799C379.838 188.654 378.62 185.616 377.846 184.432L377.843 184.428C376.634 182.579 375.618 181.024 374.135 179.33C372.865 177.878 371.978 175.483 371.315 173.694L371.288 173.619C370.934 172.664 370.36 172.06 370.36 170.964V167.653C370.36 165.088 370.168 162.769 371.736 160.598C373.225 158.536 374.294 156.431 376.423 154.968C378.388 153.617 380.205 151.67 382.517 150.873C384.727 150.111 386.63 148.793 389.011 148.793H396.449C398.612 148.793 401.472 148.601 403.536 149.369C405.811 150.216 408.145 150.73 410.396 151.636C410.555 151.648 410.702 151.705 410.83 151.817C413.344 152.894 415.307 155.069 417.004 157.143C417.497 157.745 418.158 158.367 418.556 159.031C418.902 159.608 418.608 160.3 419.036 160.87C419.64 161.675 420.634 162.158 420.395 163.35C420.204 164.309 421.035 164.915 421.035 166.069V168.644C421.035 170.194 421.391 172.394 420.811 173.843C420.552 174.49 420.523 175.21 420.315 175.874Z" fill="#FFE6F3"/>
<path d="M397.857 183.489C398.606 182.739 419.995 176.899 420.315 175.874C420.523 175.21 420.552 174.49 420.811 173.843C421.391 172.394 421.035 170.194 421.035 168.644C421.035 167.786 421.035 166.927 421.035 166.069C421.035 164.915 420.204 164.309 420.395 163.35C420.634 162.158 419.64 161.675 419.036 160.87C418.608 160.3 418.902 159.608 418.556 159.031C418.158 158.367 417.497 157.745 417.004 157.143C415.307 155.069 413.344 152.894 410.83 151.817M397.857 183.489C398.458 182.62 399.086 181.836 399.729 181.009C400.433 180.104 401.666 179.154 402.096 178.098C402.469 177.181 403.386 176.723 403.92 175.922C404.502 175.048 404.889 174.303 405.791 173.683C407.341 172.618 408.81 169.536 409.454 167.733C410.005 166.191 410.946 164.336 411.95 163.046C412.976 161.725 412.997 159.489 414.125 158.295C415.992 156.318 415.209 155.917 413.5 154.968C412.012 154.141 412.129 152.954 410.83 151.817M397.857 183.489C396.83 184.972 387.004 186.348 386.02 187.823M410.83 151.817C408.446 150.795 405.957 150.27 403.536 149.369C401.472 148.601 398.612 148.793 396.449 148.793C393.97 148.793 391.491 148.793 389.011 148.793C386.63 148.793 384.727 150.111 382.517 150.873C380.205 151.67 378.388 153.617 376.423 154.968C374.294 156.431 373.225 158.536 371.736 160.598C370.168 162.769 370.36 165.088 370.36 167.653C370.36 168.756 370.36 169.86 370.36 170.964C370.36 172.06 370.934 172.664 371.288 173.619C371.953 175.415 372.847 177.858 374.135 179.33C375.619 181.025 376.636 182.581 377.846 184.432C378.62 185.616 379.838 188.654 381.285 188.799C383.091 188.98 384.614 189.013 386.02 187.823M410.83 151.817C409.861 150.969 407.791 153.305 407.791 154.12C407.791 154.94 407.238 155.49 407.215 156.279C407.163 158.055 406.963 160.562 405.615 161.91C402.612 164.913 401.718 169.383 398.865 172.403C398.186 173.122 397.868 174.013 397.137 174.707C396.294 175.508 395.351 176.205 394.53 177.026C392.778 178.779 390.889 180.496 389.523 182.545C388.455 184.147 387.517 186.557 386.02 187.823" stroke="black" stroke-width="3" stroke-linecap="round"/>
<path d="M518.227 65.3105C517.489 66.3834 517.207 68.7408 516.627 69.9013C514.841 72.2833 514.324 75.425 514.324 78.3792C514.324 80.4071 513.748 82.2874 513.748 84.3617V89.4164C513.748 91.6285 515.237 93.8806 516.451 95.6548C516.948 96.3806 517.153 97.1856 517.779 97.8302C518.537 98.6119 519.442 99.2053 520.21 99.9737C521.623 101.386 523.41 102.364 524.961 103.605C526.564 104.887 527.148 105.604 529.296 105.604H545.804C550.139 105.604 554.666 105.912 558.952 105.252C561.817 104.812 564.514 103.916 567.19 102.869C569.268 102.056 572.397 100.974 573.94 99.2379C576.136 96.7674 577.582 94.2077 579.411 91.4639C581.281 88.6585 583.138 85.7533 583.138 82.3462C583.138 80.1853 583.436 77.7959 582.994 75.6759C582.8 74.7457 583.036 73.7947 582.434 73.0045C581.85 72.2379 581.699 71.9737 581.699 71.053C581.699 68.8739 580.736 66.3661 580.323 64.2068C579.87 61.8428 579.327 59.4452 578.595 57.1686C578.239 56.0595 578.282 56.0373 577.236 55.1851C575.572 53.8297 574.555 51.764 572.709 50.6102C571.396 49.79 569.985 48.3917 568.55 47.8749C566.359 47.0862 563.689 46.2752 561.384 46.0674C557.691 45.7344 553.881 46.0034 550.171 46.0034C547.975 46.0034 545.519 46.1911 543.388 46.7552C541.12 47.3557 539.466 48.0189 537.086 48.0189C535.639 48.0189 533.898 48.6796 532.479 49.0106C530.563 49.4578 528.78 50.9484 527.536 52.4977C526.58 53.6891 525.793 55.036 524.833 56.2088C524.266 56.9023 524.083 57.743 523.377 58.3203C521.884 59.5421 520.717 61.5623 519.858 63.279C519.449 64.0973 518.729 64.5795 518.227 65.3105Z" fill="white" stroke="black" stroke-width="3" stroke-linecap="round"/>
<path d="M519.794 58.8001C519.997 59.3587 520.428 61.1485 520.946 61.2635C521.509 61.8264 522.624 61.6892 522.897 62.4792C523.121 63.1265 522.961 64.0404 522.961 64.7186V69.3895C522.961 73.3273 522.484 77.1181 522.114 81.0025C521.914 83.0936 522.263 84.9069 521.378 86.873C520.404 89.0379 518.618 90.9355 516.627 92.2157C515.614 92.8669 514.998 94.0381 513.876 94.5191C512.146 95.2604 510.495 96.135 508.725 96.8065C507.478 97.2796 506.271 97.9623 504.982 98.1342C503.781 98.2942 503.028 99.1157 502.007 99.4938C500.253 100.143 498.096 100.033 496.408 100.997C494.194 102.263 492.261 102.149 489.786 102.149C485.218 102.149 480.793 100.315 476.461 98.9819C475.454 98.6721 475.068 97.8302 473.854 97.8302C472.801 97.8302 471.647 97.1725 470.671 96.7905C468.952 96.1181 467.254 93.5608 466.528 91.9277C466.1 90.9662 464.988 90.2118 464.272 89.4964C463.55 88.7744 463.226 87.5908 462.641 86.7451C462.075 85.9274 461.751 84.78 461.345 83.8658C460.89 82.8412 460.227 81.962 459.745 80.9705C458.335 78.0667 458.177 73.6706 459.553 70.7651C459.959 69.9094 459.918 68.6833 460.129 67.7579C460.42 66.4847 460.625 65.2536 461.057 63.9828C461.639 62.2717 462.412 60.5246 463.089 58.8321C463.897 56.8103 464.824 55.4111 466.24 53.7934C467.545 52.3018 468.506 50.7966 469.551 49.1706C470.108 48.3037 471.186 47.8126 471.854 46.9951C472.611 46.0702 473.246 45.0624 474.03 44.1319C475.23 42.7062 477.345 41.1467 479.133 40.5968C481.009 40.0194 483.83 40.5328 485.819 40.5328H490.714C494.392 40.5328 498.359 40.5846 501.639 42.3883C502.428 42.8226 503.2 42.8326 503.974 43.2681C505.277 44.0007 506.654 44.5369 507.973 45.2516C509.023 45.82 510.324 46.0848 511.012 47.1551C511.498 47.9112 512.422 48.5447 513.172 49.0266C515.41 50.4654 516.376 53.8653 517.907 55.9529C518.461 56.7086 519.486 57.9522 519.794 58.8001Z" fill="white" stroke="black" stroke-width="3" stroke-linecap="round"/>
<path d="M478.909 73.3564C478.85 73.8262 478.333 73.8804 478.333 74.5081C478.333 75.6929 478.415 75.6598 479.612 75.6598C481.236 75.6598 479.626 73.8534 479.196 72.7806" stroke="black" stroke-width="3" stroke-linecap="round"/>
<path d="M535.054 81.9943C534.312 83.572 534.155 85.7373 536.558 85.7373C537.721 85.7373 538.705 86.0654 538.493 84.5856C538.315 83.3352 536.682 82.2268 535.63 82.858" stroke="black" stroke-width="3" stroke-linecap="round"/>
<path d="M509.429 102.725C510.439 104.107 512.09 105.572 513.908 104.74C514.744 104.358 515.788 102.884 515.411 104.165C514.964 105.687 513.312 106.551 512.596 107.908C511.816 109.386 511.929 110.515 510.453 111.795C510.366 111.87 509.265 112.959 509.269 112.962C509.405 113.098 511.301 112.478 511.524 112.387C512.767 111.875 514.038 111.456 515.299 110.963C517.664 110.038 513.002 111.067 512.132 111.523C510.747 112.248 508.658 112.39 507.701 113.666" stroke="black" stroke-width="3" stroke-linecap="round"/>
<path d="M360.571 173.267C359.848 172.611 359.073 172.057 358.379 171.364C357.577 170.562 357.009 170.755 356.06 170.388C355.277 170.085 352.568 169.075 351.645 169.588C350.717 170.103 351.423 171.31 350.909 171.971C350.465 172.542 349.649 173.409 349.405 174.067C348.793 175.722 350.602 178.271 351.645 179.314C353.28 180.948 354.862 182.481 357.403 182.481C359.083 182.481 360.763 182.481 362.442 182.481C363.522 182.481 363.256 178.356 363.146 177.586C362.865 175.619 361.014 172.891 359.419 171.827" stroke="black" stroke-width="3" stroke-linecap="round"/>
</svg>
