<svg width="300" height="225" viewBox="0 0 300 225" fill="none" xmlns="http://www.w3.org/2000/svg">
<path d="M130.275 25.7049C131.052 25.7049 131.386 25.8153 131.901 25.2429C131.901 24.4347 130.256 22.3041 129.667 21.8623L129 21C128.325 20.494 127.938 20.2675 127.38 19.608C126.255 18.2788 124.93 17.1609 123.953 15.6961C123.194 14.5569 122.378 13.4553 121.572 12.3339C121.09 11.6642 120.835 10.8743 120.375 10.2001C119.857 9.43992 119.193 8.79522 118.748 7.98014C118.127 6.84182 116.969 6.01716 116.366 4.8765C116.195 4.55111 114.761 1.93107 115.009 1.71898C115.348 1.42801 117.08 1.66093 117.595 1.68665C123.504 1.9821 129.372 2.66299 135.215 3.73419C138.998 4.42776 142.748 5.49625 146.476 6.42832C149.656 7.22323 152.625 8.26237 155.744 9.241C159.526 10.4274 163.626 10.8712 167.253 12.5925C168.9 13.3741 170.684 13.8981 172.415 14.4892C174.364 15.1548 176.284 15.95 178.202 16.6229C180.44 17.4082 182.68 18.0873 184.948 18.7567C186.562 19.2328 187.912 20.3542 189.571 20.7934C190.839 21.1291 191.898 21.8127 193.095 22.3345C194.853 23.1005 196.879 23.8773 198.387 25.0502C198.928 25.4713 199.568 25.5884 200.132 25.9446C200.802 26.3676 201.337 26.9802 202.008 27.3994C203.248 28.1747 204.445 28.898 205.553 29.8565C206.747 30.8901 207.863 31.9683 209.045 32.9925C210.001 33.8214 211.136 34.5495 211.868 35.5896C212.48 36.4593 213.354 37.1783 214.002 38.0574C214.674 38.9696 215.452 39.6912 216.243 40.4821C217.478 41.7173 218.163 43.6979 220.209 43.7798C220.449 43.9399 221.022 43.9344 221.305 44.0121C221.79 44.1457 222.157 44.4445 222.618 44.6105C223.251 44.8386 223.794 45.255 224.463 45.4333C225.194 45.6282 225.83 46.002 226.615 46.0317C227.431 46.0624 228.259 46.2774 229.054 46.443C229.514 46.5388 230.396 46.4883 230.654 47.004C230.837 47.3699 230.668 48.0181 230.7 48.4293C230.739 48.9371 231.276 49.5254 231.785 49.6178C232.438 49.7366 233.087 49.8529 233.771 49.9045C237.759 50.2055 241.78 49.875 245.763 50.1497L245.814 50.1531C246.155 50.1763 246.583 50.2053 246.877 50.3699C247.212 50.5575 247.043 50.9083 247.006 51.2217C246.878 52.3057 246.151 53.3546 245.406 54.1347C244.232 55.3647 243.252 56.8469 241.907 57.8912C241.272 58.3841 240.751 59.0073 240.095 59.4785C239.661 59.7909 239.209 59.9951 238.736 60.239C237.899 60.6713 237.174 61.5901 237.357 62.5951C237.403 62.8487 237.726 63.3089 237.914 63.4968C238.21 63.7929 238.491 64.1021 238.782 64.4027C239.999 65.6573 241.274 66.8571 242.51 68.0927C242.949 68.5319 243.482 69.0179 243.848 69.5138C244.281 70.1013 244.965 70.6115 245.306 71.2466C245.57 71.7375 245.366 72.6802 244.982 73.0334C244.146 73.8028 242.824 74.3001 241.791 74.7371C240.849 75.1357 239.732 75.2649 238.724 75.4269C237.835 75.5698 236.987 76.0056 236.081 76.0253C235.953 76.0281 234.628 76.0763 234.743 76.1915C235.046 76.4943 235.449 76.7321 235.786 77.0018C236.258 77.3797 236.714 77.7716 237.174 78.1612C237.528 78.4603 237.927 78.8707 238.329 79.0837C238.588 79.2206 238.778 79.2665 238.961 79.5075C239.147 79.7524 239.268 80.0262 239.489 80.2472C239.941 80.6993 240.249 81.1442 240.536 81.7182C240.753 82.1526 240.99 82.5684 241.205 82.9981C241.494 83.5766 241.392 84.2954 241.392 84.922C241.392 85.3801 241.218 85.5245 240.793 85.5245C240.339 85.5245 239.948 85.6691 239.505 85.7323C238.475 85.8795 237.42 85.7865 236.397 86.0066C235.886 86.1165 235.406 86.174 234.884 86.1977C234.567 86.2121 234.232 86.4124 234.323 86.7587C234.397 87.0388 234.518 87.2257 234.702 87.4443C235.034 87.8395 235.29 88.4377 235.524 88.907C235.772 89.4028 235.996 89.8864 236.264 90.3739C236.374 90.5747 236.818 91.4227 236.979 91.5831C237.451 92.2442 238.195 92.8085 238.849 93.2868C239.611 93.8447 240.119 94.7404 240.876 95.2814C241.251 95.549 241.916 95.9997 242.065 96.4823C242.155 96.7761 242.247 97.055 242.422 97.301C242.656 97.6277 243.189 98.6178 242.551 98.7595C240.733 99.1635 238.883 99.4379 237.012 99.603C236.261 99.6693 235.514 99.6612 234.76 99.6612C234.503 99.6612 233.122 99.5508 233.168 99.8482C233.252 100.39 233.635 100.962 233.837 101.473C234.058 102.032 234.182 102.632 234.323 103.214C234.464 103.793 234.742 104.31 234.918 104.872C235.082 105.397 235.224 105.944 235.408 106.459L235.562 107.5C235.7 107.886 236.233 108.768 235.562 108.936C235.232 109.018 235.041 109.299 234.677 109.368L234.594 109.384C234.241 109.452 233.858 109.525 233.505 109.534C232.309 109.567 231.303 110 230.156 110.224C229.612 110.331 229.09 110.509 228.552 110.623C228.054 110.729 227.563 110.749 227.072 110.848C226.662 110.93 226.198 110.922 225.801 111.047C225.417 111.168 225.535 111.783 225.535 112.086C225.535 112.879 225.809 113.24 226.191 113.898C226.498 114.424 226.659 114.761 227.13 115.144C227.347 115.32 227.491 115.603 227.671 115.813C227.882 116.062 228.147 116.272 228.385 116.495C229.023 117.093 229.636 117.846 230.338 118.36C231.255 119.033 232.17 119.725 233.147 120.305C233.843 120.718 234.426 121.456 234.951 122.063C235.367 122.544 235.707 123.01 235.707 123.654C235.707 123.913 235.791 124.261 235.595 124.456C235.258 124.794 234.89 125.076 234.506 125.358C234.003 125.728 233.483 126.086 232.956 126.422C232.672 126.603 232.483 126.825 232.158 126.958C231.993 127.026 231.758 127.056 231.614 127.166C231.119 127.544 230.58 127.933 230.023 128.217C229.619 128.423 229.125 128.45 228.734 128.658C227.81 129.149 226.66 128.982 225.643 128.982H224.076C223.732 128.982 223.351 129.042 223.037 128.874C222.617 128.648 222.675 129.557 222.618 129.813C222.53 130.206 222.395 130.589 222.285 130.976C222.165 131.401 222.174 131.841 222.057 132.264C221.857 132.985 221.945 133.81 221.945 134.55C221.945 135.18 222.055 135.995 222.393 136.553C222.578 136.857 222.736 137.307 222.838 137.646C222.952 138.026 223.184 138.333 223.332 138.689C223.541 139.186 223.769 139.674 224.001 140.164C224.105 140.383 224.139 140.653 224.263 140.858C224.449 141.163 224.637 141.362 224.637 141.735C224.637 141.917 224.5 142.301 224.5 142.5C224.5 142.64 223.627 143.554 223.5 144C223.199 145.052 223.403 144.612 222.831 145.485C222.231 146.401 221.97 147.541 221.342 148.445C220.238 150.036 219.517 152.136 218.889 153.964L218.889 153.964L218.827 154.143C218.449 155.245 218.08 156.426 217.672 157.514C217.286 158.544 217.14 159.693 216.671 160.697C215.71 162.757 214.868 164.882 214.173 167.045C213.904 167.881 213.578 168.754 213.249 169.578C212.876 170.509 212.988 171.515 212.753 172.47C212.312 174.256 211.521 176.234 211.521 178.082C211.521 180.163 211.367 182.331 211.367 184.448V186.843C211.367 187.279 211.226 188.017 211.444 188.409C211.613 188.713 211.967 189.763 212.291 189.855C212.814 190.005 213.523 189.872 214.07 189.872C214.643 189.872 215.165 189.564 215.747 189.564H218.177C219.661 189.564 220.391 191.191 220.453 192.49C220.49 193.273 220.607 194.035 220.607 194.834C220.607 195.944 220.055 196.297 219.452 197.102C218.802 197.968 216.382 198.65 215.371 198.65L213 198.15C212.663 197.952 210.5 197.5 211.5 198C212.304 198.497 214 199 213.42 199.42C212.94 200.092 212.197 200.576 211.752 201.268C211.096 202.288 209.365 202.799 208.252 202.997C206.675 203.277 204.949 203.424 203.358 203.424C202.972 203.424 202.003 203.613 201.818 203.168C201.722 202.935 201.404 202.791 200.5 202C196.5 198.5 201.242 206.816 199.046 207.856C198.005 208.35 196.699 208.814 195.504 208.814H193.468C192.767 208.814 192.078 208.11 191.654 207.565C190.555 206.152 191.078 203.308 190.5 202C190 195.5 190.478 206.927 190.268 207.702C189.938 208.919 189.503 210.314 188.232 210.816C187.645 211.048 187.118 211.277 186.538 211.501C185.535 211.888 184.733 211.894 183.663 211.894C182.335 211.894 180.416 212.189 179.214 211.432C177.909 210.611 177.601 208.009 177.5 206.5C177 205.5 177.004 207.957 177 208C176.946 208.543 176.638 208.887 176.442 209.396C176.002 210.542 175.68 211.733 175.09 212.818C174.374 214.137 172.836 213.742 171.557 213.742C169.731 213.742 168.836 212.241 168.477 210.585C168.357 210.036 168.4 209.46 168.4 208.9C168.4 208.15 168.264 209.431 168.229 209.61C168.045 210.526 167.779 212.305 166.791 212.664C166.505 212.768 166.486 213.144 166.209 213.246C165.97 213.335 165.649 213.28 165.397 213.28H160.622C159.571 213.28 158.513 210.876 158.004 210.141C157.494 209.404 155.927 209.276 155.078 209.276C154.811 209.276 154.722 209.006 154.471 208.934C154.105 208.83 153.685 208.711 153.307 208.669C152.411 208.569 151.626 208.371 150.92 207.822C149.825 206.97 152.075 209.195 152.075 210.269C152.075 211.312 152.233 211.879 151.802 212.938C151.513 213.647 150.428 214.326 149.825 214.744C149.334 215.083 148.81 215.219 148.234 215.291C147.792 215.346 147.615 215.745 147.147 215.745H140.217C138.709 215.745 136.983 215.953 135.511 215.591C134.184 215.264 132.894 214.444 131.576 214.205C130.813 214.066 130.027 213.813 129.283 213.589C128.573 213.374 127.82 213.421 127.11 213.263C124.761 212.742 122.196 212.973 119.752 212.973C118.775 212.973 117.668 213.121 116.706 212.938C115.776 212.761 113.794 211.652 112.882 211.424C111.718 211.546 110.757 211.181 109.656 210.936C109.021 210.795 108.421 210.858 107.774 210.782C106.975 210.689 106.201 210.413 105.395 210.363C103.578 210.249 101.671 210.279 99.8684 210.012C98.6665 209.834 97.4637 209.715 96.2579 209.55C95.3851 209.431 94.4813 209.525 93.6227 209.353C92.6215 209.153 91.5734 209.304 90.5597 209.157C89.4267 208.992 88.2307 208.968 87.0861 208.968H59.0576C56.6703 208.968 54.1814 209.18 51.8195 208.849C50.679 208.689 49.3795 208.69 48.2261 208.66C47.1129 208.632 46.0187 208.506 44.8979 208.506H41.1932C39.8725 208.506 38.4133 207.919 37.0865 207.736C33.7449 207.276 30.3376 206.444 26.9565 206.35C24.9183 206.294 22.7567 205.753 20.7729 205.256L20.5312 205.195C18.4718 204.681 16.1277 205.037 14.123 204.28C12.5594 203.689 10.4193 203.779 9.0323 202.808C7.77128 201.926 7.91669 202.524 6.5 202L3.5 201C3.02646 200.826 1.44327 200.335 1.9225 199.728C2.0789 199.53 2.69758 199.163 2.93207 199.121C3.88841 198.947 4.45008 198.324 5.31056 197.914C5.54774 197.802 5.85485 197.825 6.08058 197.692C6.47912 197.457 6.67405 197.012 7.12437 196.802C7.77272 196.5 8.61063 196.352 9.15208 195.878C10.0665 195.078 11.2281 194.535 12.1637 193.808C12.5343 193.52 13.1972 193.163 13.6353 192.944C14.3266 192.598 14.8262 192.067 15.4405 191.635C16.6618 190.775 18.1746 190.621 19.5302 190.035C20.9959 189.401 22.8248 189.041 24.3727 188.76C25.779 188.504 27.2407 188.026 28.642 187.879C31.3465 187.594 34.2277 187.524 36.8812 188.007C38.0742 188.224 39.5225 188.024 40.7312 188.024C42.4099 188.024 44.0666 188.3 45.7449 188.332C47.3533 188.363 48.9237 188.839 50.519 189.017C51.7887 189.158 52.8244 189.251 54.0611 189.581C54.6918 189.749 55.13 190.026 55.8235 190.026H63.2499C64.1311 190.026 62.4694 189.589 62.1719 189.41C61.6585 189.102 61.25 188.673 60.7516 188.341C59.6299 187.593 58.7148 186.662 57.6716 185.834C57.1141 185.391 56.7263 184.694 56.2855 184.14C55.723 183.433 54.9898 182.799 54.5231 182.035C54.264 181.611 53.849 181.316 53.5306 180.94C53.2235 180.577 53.11 180.117 52.829 179.742C52.244 178.962 51.6251 178.242 51.1264 177.398C49.5101 174.662 47.1349 172.093 46.1898 168.988C45.4316 166.496 43.7151 164.439 43.0413 161.912C42.5551 160.089 42.2058 157.644 42.6563 155.752C43.0615 154.05 42.7351 152.126 43.5001 150.5C44.0001 148 45.4915 146.749 46.5492 144.39C46.8956 143.617 47.4997 142.982 47.7812 142.165C48.039 141.418 48.3212 140.547 48.8934 139.975C49.5232 139.345 50.0834 138.608 50.5533 137.853C51.1032 136.969 51.9316 136.235 52.581 135.423C54.1903 133.412 56.128 131.7 58.0395 129.973C58.6296 129.441 59.1359 128.843 59.7421 128.322C60.307 127.837 60.9972 127.506 61.5388 127.013C62.7545 125.908 63.8704 124.467 65.2092 123.522C67.0029 122.256 68.2673 120.473 69.9148 119.048C71.3332 117.821 72.7306 116.598 74.1328 115.352C75.3074 114.308 76.6243 113.517 77.7177 112.374C79.2216 110.802 80.8137 109.367 82.3121 107.788C84.0779 105.928 85.7759 104.017 87.5824 102.21C88.6729 101.12 87.1971 100.623 86.4702 99.9343C86.1756 99.6553 85.6815 99.5339 85.3323 99.3269C84.8804 99.0591 84.6415 98.6767 84.2457 98.3601C83.5818 97.829 82.8457 97.3993 82.1581 96.8885C81.4646 96.3733 81.0731 95.8156 80.3101 95.434C79.863 95.2105 79.6458 94.6499 79.309 94.3132C78.9761 93.9803 78.1228 93.3641 78.0257 92.9272C77.9893 92.7637 79.0008 91.8922 79.155 91.7037C80.0864 90.5654 81.5384 89.8224 82.1666 88.4611C82.8092 87.0688 84.1696 86.2913 84.6392 84.765C84.7876 84.2829 85.2751 83.4983 85.7001 83.225C85.9617 83.0568 86.2571 82.9517 86.3161 82.686C86.6402 82.1999 86.8867 81.9305 87.3257 81.5738C87.6579 81.3039 87.2561 80.8341 87.0861 80.5642C86.7636 80.0519 86.4688 79.5349 86.1963 78.99C85.4425 77.4822 84.2782 75.9417 83.3045 74.5581C82.5286 73.4554 81.9508 72.3246 81.4222 71.0845C80.8598 69.765 80.0124 68.6474 79.4715 67.3028C78.7497 65.5086 77.8043 63.7728 77.1957 61.947C76.4463 59.6987 76.5287 57.1347 75.4332 55.0168C74.3589 52.9397 73.8509 50.779 73.1574 48.5829C72.647 46.9665 72.0702 45.611 71.8741 43.9115C71.6904 42.3195 71.132 40.686 70.6078 39.1716C70.2085 38.0182 69.9172 36.8309 69.41 35.7151C68.6107 33.9566 68.3456 32.0825 68.4518 30.171C68.5229 28.8902 70.9288 28.9292 71.7543 28.554C72.3631 28.2772 73.1656 28.1258 73.8419 27.938C74.57 27.7357 75.472 27.553 76.2289 27.553C77.1005 27.553 78.1528 27.3523 79.001 27.168C79.3391 27.0944 79.6589 27.091 80.002 27.091C80.3936 27.091 80.5062 26.8627 80.8661 26.8001C81.851 26.6288 83.0032 26.7146 84.0061 26.6375C85.2568 26.5413 86.4175 26.4739 87.6508 26.2525C89.2258 25.9698 90.9632 26.1669 92.5618 26.1669H97.2589C103.87 26.1669 110.418 25.8589 117.023 25.8589C119.969 25.8589 122.908 25.7049 125.861 25.7049H130.275Z" fill="#D9D9D9" stroke="black" stroke-width="3" stroke-linecap="round"/>
<path d="M87.5 107.5C87.9985 107.625 87.1961 108.93 87.7182 109.8C88.3581 110.867 88.5028 112.071 89.1641 113.137C89.6566 113.93 90.0243 114.777 90.6699 115.447C91.3672 116.171 91.848 117.019 92.5521 117.723C93.2819 118.452 94.2742 119.938 95.2729 120.204C96.3272 120.485 96.9755 121.535 97.9765 121.915C98.6241 122.161 98.9444 122.574 99.4908 122.882C100.022 123.181 100.692 123.485 101.176 123.831C102.551 124.813 104.053 125.643 105.642 126.261C107.207 126.87 108.83 127.817 110.493 128.186C112.001 128.521 113.855 128.884 115.259 129.547C117.026 130.38 119.093 130.022 120.769 130.933C122.081 131.646 123.981 131.755 125.44 131.891C127.275 132.062 129.073 132.332 130.907 132.516C133.057 132.731 135.237 132.543 137.367 132.969" stroke="black" stroke-width="3" stroke-linecap="round"/>
<path d="M177.642 86.735C176.975 86.0679 174.771 84.7964 175.206 83.7391L163.956 50.569C162.039 48.6526 162.374 45.4948 163.352 43.2948C163.562 42.8214 163.537 42.1702 163.869 41.743C164.343 41.1339 164.916 40.5868 165.518 40.105C166.311 39.471 166.987 39.003 167.727 38.2622C168.171 37.8185 168.38 37.2466 168.805 36.7966C169.183 36.3963 169.063 35.8236 169.387 35.4387C169.844 34.8962 170.1 34.3857 170.357 33.736C171.089 31.8843 172.458 30.5961 174.129 29.5332C176.062 28.3027 178.09 27.0696 180.25 26.2787C181.317 25.8879 182.479 25.139 183.547 24.8562C184.523 24.5979 185.727 24.77 186.726 24.77C188.714 24.77 190.782 24.5725 192.761 24.7808C194.037 24.915 196.159 24.9702 197.277 25.6321C198.371 26.2806 199.683 26.4058 200.531 27.4857C200.904 27.961 201.767 28.1796 202.298 28.4771C203.195 28.9789 203.966 29.4768 204.691 30.2013C205.629 31.1401 206.149 32.3095 207.212 33.1541C207.773 33.5991 208.285 34.1348 208.807 34.6197C209.259 35.0392 209.93 35.2079 210.435 35.5573C211.305 36.1595 211.953 36.7182 212.913 37.0875C213.297 37.235 213.746 37.5325 214.045 37.8096C215.094 38.7807 216.145 39.3596 216.804 40.6761C217.499 42.0661 218.184 43.5086 218.959 44.8466C219.253 45.355 219.866 45.5831 220.004 46.2045C220.167 46.9354 220.412 47.5688 220.748 48.2413C221.344 49.4337 221.937 50.7671 222.3 52.0346C222.513 52.78 222.925 53.0306 222.925 53.8666V56.0973C222.925 59.5152 223.139 63.0439 222.688 66.432C222.434 68.3368 222.749 70.533 221.879 72.2729C221.057 73.9179 221.232 75.8746 219.864 77.2948C218.777 78.4237 217.748 80.3614 216.329 81.1312C214.967 81.8708 213.836 82.9947 212.461 83.7283C209.005 85.5714 205.419 87.7117 201.544 88.4161C198.409 88.9861 195.475 89.3645 192.276 89.3645C189.672 89.3645 187.155 89.039 184.56 88.9765C183.204 88.9438 182.078 88.2793 180.788 87.9635C179.866 87.7377 178.352 87.4455 177.642 86.735Z" fill="white" stroke="black" stroke-width="3" stroke-linecap="round"/>
<path d="M170.982 90.1404C170.473 90.4854 170.36 91.5166 169.775 91.6922C169.205 93.1158 168.338 94.2925 167.253 95.3778C166.731 95.8998 166.316 96.5088 165.798 97.0266C165.217 97.6076 164.412 97.7447 163.805 98.3521C162.688 99.4684 161.219 100.515 159.731 101.046C159.047 101.29 158.586 101.908 157.953 102.264C157.159 102.711 156.361 103.267 155.517 103.611C152.979 104.645 149.946 104.495 147.252 104.495C144.8 104.495 142.367 104.555 139.935 104.312C137.475 104.066 135.008 103.511 132.531 103.32C131.102 103.21 129.61 102.346 128.199 102.016C127.165 101.774 126.66 101.277 125.828 100.658C124.95 100.005 124.055 99.3959 123.231 98.6754C122.629 98.1489 121.973 97.3572 121.28 96.9727C120.597 96.5929 120.202 95.6575 119.632 95.0868C119.014 94.4694 118.218 93.4783 117.746 92.7268C117.14 91.7614 116.741 90.7389 116.151 89.774C115.626 88.9152 115.073 88.1584 115.073 87.123V80.2368C115.073 78.6254 114.871 76.866 115.084 75.2688C115.229 74.1826 115.121 72.99 115.418 71.9496C115.836 70.4864 116.199 68.832 116.431 67.3157C116.753 65.2158 116.917 63.549 117.983 61.6688C118.296 61.1165 118.272 60.4338 118.565 59.8476C118.928 59.1211 119.234 58.383 119.61 57.6599C120.046 56.8211 120.127 55.7224 120.311 54.8042C120.714 52.7868 122.364 51.4043 123.899 50.2026C125.856 48.6708 128.492 47.4302 130.904 46.8942C132.979 46.4332 135.4 46.524 137.381 45.8165C139.062 45.2162 140.799 43.7798 142.661 43.7798H150.377C152.358 43.7798 154.292 44.3102 156.153 45.1376C156.979 45.5046 157.811 46.2474 158.632 46.7002C159.76 47.3228 160.701 48.2007 161.822 48.8232C163.133 49.5517 164.2 51.4933 165.216 52.6165C166.263 53.7739 167.061 55.5947 167.749 56.9703C168.463 58.3991 169.563 59.5493 170.368 60.9576C170.899 61.8876 171.071 63.0118 171.628 63.9103C172.178 64.7965 172.818 65.6574 173.159 66.6476C173.768 68.4199 174.905 70.1991 175.012 72.1005C175.08 73.29 175.4 74.352 175.4 75.5813V77.9629C175.4 79.5605 175.777 81.8458 175.303 83.362C175.01 84.3012 175.126 85.1314 174.667 86.0669C174.242 86.9348 173.563 87.7102 172.878 88.3946C172.213 89.0603 171.754 89.6167 170.982 90.1404Z" fill="white" stroke="black" stroke-width="3" stroke-linecap="round"/>
<path d="M204.915 57.522C204.287 57.522 203.539 57.3909 202.975 57.6729C202.318 58.0013 202.515 59.0276 202.975 59.4618C203.339 59.8053 204.14 59.6697 204.613 59.6558C206.148 59.6107 205.027 58.6045 204.527 58.104" stroke="black" stroke-width="3" stroke-linecap="round"/>
<path d="M157.748 72.6824C157.126 72.129 157.348 74.0282 157.36 74.3851C157.398 75.483 158.834 75.8689 159.731 75.5058C161.31 74.8667 161.165 73.7025 160.011 72.7686C159.359 72.2407 157.842 72.0002 158.912 73.0703" stroke="black" stroke-width="3" stroke-linecap="round"/>
<path d="M177.34 94.4078C177.414 95.0723 178.964 95.1837 179.474 95.1837C180.294 95.1837 180.444 96.581 180.444 97.2421C180.444 98.1683 180.397 99.1086 180.444 100.033C180.475 100.662 180.812 101.162 181.101 101.682C181.287 102.017 179.151 102.005 178.87 102.081C177.425 102.47 176.886 103.009 175.885 104.01C175.769 104.126 175.301 104.99 175.723 104.99C176.834 104.99 177.507 103.043 177.965 102.296C178.836 100.877 180.145 101.003 181.629 101.003C183.943 101.003 185.955 101.105 188.203 101.779" stroke="black" stroke-width="3" stroke-linecap="round"/>
<path d="M138.091 155.369C137.584 155.369 137.264 155.442 136.884 155.822C136.506 156.2 136.123 156.666 135.945 157.176C135.721 157.816 135.548 158.377 135.433 159.051C135.318 159.727 135.084 160.391 134.997 161.067C134.811 162.509 134.846 163.955 134.846 165.411C134.846 165.717 134.846 166.023 134.846 166.329C134.846 166.73 135.265 167.251 135.433 167.62C135.736 168.286 136.409 169.083 136.921 169.595C137.479 170.152 137.897 170.796 138.452 171.351C139.093 171.993 139.698 172.674 140.343 173.318C141.742 174.717 143.193 176.07 144.69 177.368C146.173 178.653 147.455 180.18 148.728 181.665C149.227 182.248 149.708 182.819 150.241 183.367C150.787 183.928 151.29 184.572 151.897 185.065C152.363 185.444 152.81 186.029 153.117 186.541C153.308 186.859 153.63 187.183 153.88 187.459C154.131 187.736 154.377 188.049 154.601 188.348C155.4 189.413 156.238 190.474 156.941 191.61C157.899 193.158 158.316 194.876 158.316 196.7C158.316 197.062 158.316 197.424 158.316 197.786C158.316 198.317 158.127 198.676 157.805 199.106C157.519 199.487 157.072 200.121 156.652 200.347C156.163 200.61 155.789 201.007 155.297 201.253C154.82 201.491 154.435 201.84 153.964 202.091C153.383 202.401 152.771 202.697 152.279 203.139C151.957 203.429 151.677 203.792 151.293 204.007C150.941 204.206 150.621 204.598 150.241 204.724" stroke="black" stroke-width="3" stroke-linecap="round"/>
<path d="M94.0945 168.802C94.1262 168.517 94.6843 167.971 94.8911 167.792C95.2988 167.439 95.7383 167.111 96.174 166.782C96.7691 166.331 97.5149 166.083 98.0942 165.633C98.5874 165.249 99.2245 165.122 99.7502 164.807C99.9657 164.678 100.302 164.636 100.547 164.572C100.785 164.51 100.989 164.351 101.23 164.291C101.868 164.132 102.626 164.088 103.243 163.864C104.099 163.552 105.061 163.647 105.959 163.557C107.478 163.406 109.035 163.52 110.563 163.52C112.155 163.52 113.746 163.52 115.338 163.52C115.581 163.52 115.824 163.506 116.063 163.553C116.955 163.729 117.832 163.979 118.713 164.199C118.963 164.261 119.05 164.341 119.225 164.501C119.89 165.111 120.976 165.407 121.799 165.733C122.296 165.93 122.781 166.132 123.266 166.362C124.495 166.944 125.893 167.318 127.065 168.01C127.535 168.288 127.717 169.138 127.995 169.591C128.192 169.91 128.379 170.22 128.507 170.572C128.865 171.556 129.838 172.242 130.377 173.121C130.758 173.741 131.039 174.418 131.408 175.045C131.699 175.538 132.038 175.929 132.146 176.5C132.258 177.094 132.562 177.672 132.809 178.219C133.027 178.705 133.144 179.176 133.303 179.678C133.538 180.416 133.563 181.126 133.563 181.891C133.563 183.913 133.867 186.344 132.892 188.185C132.47 188.981 132.355 189.92 132.054 190.763C131.793 191.495 131.312 192.162 131.002 192.876C130.801 193.337 130.609 193.736 130.335 194.159C130.03 194.629 129.647 195.109 129.262 195.517C128.933 195.865 128.798 196.334 128.469 196.691C127.952 197.254 127.415 197.825 126.952 198.431C126.524 198.99 125.988 199.406 125.581 199.97C125.241 200.44 124.935 200.919 124.612 201.416C124.372 201.786 124.017 202.001 123.757 202.343C123.518 202.656 123.271 202.959 123.015 203.257C122.397 203.975 121.66 204.61 120.944 205.219C120.648 205.47 120.289 205.544 120.038 205.856C119.839 206.103 119.526 206.225 119.342 206.46C119.09 206.781 118.459 207.186 118.093 207.37C117.644 207.594 117.243 207.933 116.885 208.271C116.708 208.438 116.447 208.483 116.248 208.682C116.092 208.838 115.91 208.945 115.753 209.101" stroke="black" stroke-width="3" stroke-linecap="round"/>
<path d="M190.389 155.7C190.161 156.041 189.535 156.093 189.235 156.392C189.114 156.513 189.004 156.632 188.84 156.695C188.549 156.807 188.166 157.092 187.943 157.315C187.608 157.65 187.335 158.028 186.994 158.356C186.729 158.612 186.351 158.889 186.235 159.264C185.616 161.277 185.405 163.13 185.405 165.227C185.405 167.436 185.126 169.689 185.318 171.897C185.345 172.208 185.509 172.498 185.569 172.805C185.641 173.172 185.65 173.561 185.702 173.933C185.8 174.627 186.09 175.331 186.287 176.004C186.63 177.182 187.288 178.312 187.753 179.455C188.201 180.555 188.76 181.587 189.168 182.711C189.345 183.197 189.494 183.672 189.748 184.136C190.028 184.65 190.051 185.186 190.184 185.746C190.594 187.482 190.481 189.273 190.481 191.048C190.481 191.663 190.481 192.279 190.481 192.894C190.481 193.394 190.443 193.86 190.394 194.355C190.356 194.73 190.394 195.543 190.394 195.92C190.436 196.24 190.394 197.383 190.394 197.703" stroke="black" stroke-width="3" stroke-linecap="round"/>
</svg>
