<?xml version="1.0" standalone="no"?>
<!DOCTYPE svg PUBLIC "-//W3C//DTD SVG 20010904//EN"
 "http://www.w3.org/TR/2001/REC-SVG-20010904/DTD/svg10.dtd">
<svg version="1.0" xmlns="http://www.w3.org/2000/svg"
 width="296.000000pt" height="296.000000pt" viewBox="0 0 296.000000 296.000000"
 preserveAspectRatio="xMidYMid meet">

<g transform="translate(0.000000,296.000000) scale(0.100000,-0.100000)"
fill="#000000" stroke="none">
<path d="M320 2360 l0 -280 280 0 280 0 0 280 0 280 -280 0 -280 0 0 -280z
m480 0 l0 -200 -200 0 -200 0 0 200 0 200 200 0 200 0 0 -200z"/>
<path d="M480 2360 l0 -120 120 0 120 0 0 120 0 120 -120 0 -120 0 0 -120z"/>
<path d="M1120 2600 l0 -40 120 0 120 0 0 -40 0 -40 80 0 80 0 0 -40 0 -40
-120 0 -120 0 0 40 0 40 -120 0 -120 0 0 40 0 40 -40 0 -40 0 0 -40 0 -40 40
0 40 0 0 -40 0 -40 -40 0 -40 0 0 -40 0 -40 40 0 40 0 0 40 0 40 80 0 80 0 0
-40 0 -40 -40 0 -40 0 0 -40 0 -40 80 0 80 0 0 40 0 40 160 0 160 0 0 -40 0
-40 -80 0 -80 0 0 -80 0 -80 40 0 40 0 0 -40 0 -40 -80 0 -80 0 0 80 0 80 -40
0 -40 0 0 -40 0 -40 -40 0 -40 0 0 40 0 40 -40 0 -40 0 0 -40 0 -40 -40 0 -40
0 0 80 0 80 -40 0 -40 0 0 -80 0 -80 40 0 40 0 0 -40 0 -40 -120 0 -120 0 0
-40 0 -40 40 0 40 0 0 -40 0 -40 -40 0 -40 0 0 -40 0 -40 80 0 80 0 0 -40 0
-40 -120 0 -120 0 0 -120 0 -120 -40 0 -40 0 0 160 0 160 40 0 40 0 0 120 0
120 -200 0 -200 0 0 -40 0 -40 80 0 80 0 0 -40 0 -40 -40 0 -40 0 0 -40 0 -40
40 0 40 0 0 -40 0 -40 -40 0 -40 0 0 -40 0 -40 -40 0 -40 0 0 -40 0 -40 40 0
40 0 0 -40 0 -40 -40 0 -40 0 0 -40 0 -40 40 0 40 0 0 40 0 40 40 0 40 0 0 40
0 40 40 0 40 0 0 -40 0 -40 40 0 40 0 0 -40 0 -40 40 0 40 0 0 -40 0 -40 -40
0 -40 0 0 -40 0 -40 -40 0 -40 0 0 80 0 80 -40 0 -40 0 0 -40 0 -40 -80 0 -80
0 0 -160 0 -160 40 0 40 0 0 120 0 120 40 0 40 0 0 -40 0 -40 40 0 40 0 0 -80
0 -80 40 0 40 0 0 120 0 120 40 0 40 0 0 -40 0 -40 80 0 80 0 0 -40 0 -40 -80
0 -80 0 0 -40 0 -40 120 0 120 0 0 -80 0 -80 40 0 40 0 0 40 0 40 40 0 40 0 0
80 0 80 40 0 40 0 0 -80 0 -80 40 0 40 0 0 40 0 40 80 0 80 0 0 -40 0 -40 -40
0 -40 0 0 -40 0 -40 -40 0 -40 0 0 -40 0 -40 -40 0 -40 0 0 40 0 40 -40 0 -40
0 0 -120 0 -120 -40 0 -40 0 0 80 0 80 -40 0 -40 0 0 -200 0 -200 40 0 40 0 0
80 0 80 40 0 40 0 0 40 0 40 80 0 80 0 0 -40 0 -40 -40 0 -40 0 0 -40 0 -40
40 0 40 0 0 40 0 40 40 0 40 0 0 40 0 40 -40 0 -40 0 0 40 0 40 120 0 120 0 0
-80 0 -80 -40 0 -40 0 0 -40 0 -40 -40 0 -40 0 0 -40 0 -40 80 0 80 0 0 80 0
80 80 0 80 0 0 120 0 120 -40 0 -40 0 0 80 0 80 -40 0 -40 0 0 120 0 120 40 0
40 0 0 40 0 40 40 0 40 0 0 -40 0 -40 40 0 40 0 0 40 0 40 -40 0 -40 0 0 40 0
40 -80 0 -80 0 0 40 0 40 80 0 80 0 0 40 0 40 40 0 40 0 0 -40 0 -40 80 0 80
0 0 -80 0 -80 40 0 40 0 0 -40 0 -40 -40 0 -40 0 0 -40 0 -40 -40 0 -40 0 0
-40 0 -40 40 0 40 0 0 -40 0 -40 -80 0 -80 0 0 -80 0 -80 80 0 80 0 0 -40 0
-40 -80 0 -80 0 0 -80 0 -80 40 0 40 0 0 -40 0 -40 -120 0 -120 0 0 -40 0 -40
160 0 160 0 0 40 0 40 40 0 40 0 0 -40 0 -40 80 0 80 0 0 40 0 40 80 0 80 0 0
-40 0 -40 80 0 80 0 0 40 0 40 40 0 40 0 0 80 0 80 40 0 40 0 0 40 0 40 -40 0
-40 0 0 -40 0 -40 -40 0 -40 0 0 40 0 40 -80 0 -80 0 0 40 0 40 40 0 40 0 0
40 0 40 40 0 40 0 0 -40 0 -40 40 0 40 0 0 40 0 40 -40 0 -40 0 0 120 0 120
-80 0 -80 0 0 40 0 40 80 0 80 0 0 40 0 40 40 0 40 0 0 40 0 40 40 0 40 0 0
40 0 40 -80 0 -80 0 0 -80 0 -80 -80 0 -80 0 0 40 0 40 40 0 40 0 0 80 0 80
40 0 40 0 0 40 0 40 40 0 40 0 0 40 0 40 -40 0 -40 0 0 40 0 40 80 0 80 0 0
40 0 40 -80 0 -80 0 0 -40 0 -40 -80 0 -80 0 0 -40 0 -40 -200 0 -200 0 0 40
0 40 80 0 80 0 0 40 0 40 -40 0 -40 0 0 40 0 40 160 0 160 0 0 -40 0 -40 40 0
40 0 0 40 0 40 80 0 80 0 0 80 0 80 -40 0 -40 0 0 -40 0 -40 -40 0 -40 0 0 40
0 40 -40 0 -40 0 0 -40 0 -40 -40 0 -40 0 0 40 0 40 -40 0 -40 0 0 -40 0 -40
-40 0 -40 0 0 40 0 40 -80 0 -80 0 0 40 0 40 40 0 40 0 0 40 0 40 -40 0 -40 0
0 -40 0 -40 -40 0 -40 0 0 80 0 80 80 0 80 0 0 40 0 40 -40 0 -40 0 0 40 0 40
40 0 40 0 0 40 0 40 -40 0 -40 0 0 -40 0 -40 -40 0 -40 0 0 40 0 40 -40 0 -40
0 0 -40 0 -40 -40 0 -40 0 0 120 0 120 -40 0 -40 0 0 -40 0 -40 -80 0 -80 0 0
40 0 40 -160 0 -160 0 0 -40z m720 -320 l0 -40 -40 0 -40 0 0 40 0 40 40 0 40
0 0 -40z m-240 -160 l0 -40 -40 0 -40 0 0 40 0 40 40 0 40 0 0 -40z m160 0 l0
-40 40 0 40 0 0 -40 0 -40 40 0 40 0 0 -40 0 -40 -40 0 -40 0 0 -40 0 -40 40
0 40 0 0 -40 0 -40 -80 0 -80 0 0 -40 0 -40 -40 0 -40 0 0 -40 0 -40 -40 0
-40 0 0 -40 0 -40 -80 0 -80 0 0 -80 0 -80 -160 0 -160 0 0 -80 0 -80 80 0 80
0 0 40 0 40 120 0 120 0 0 -80 0 -80 -40 0 -40 0 0 -40 0 -40 -120 0 -120 0 0
40 0 40 -40 0 -40 0 0 40 0 40 -40 0 -40 0 0 -120 0 -120 -40 0 -40 0 0 120 0
120 40 0 40 0 0 40 0 40 -40 0 -40 0 0 40 0 40 -120 0 -120 0 0 40 0 40 120 0
120 0 0 120 0 120 40 0 40 0 0 120 0 120 40 0 40 0 0 40 0 40 120 0 120 0 0
-120 0 -120 40 0 40 0 0 -80 0 -80 40 0 40 0 0 40 0 40 40 0 40 0 0 40 0 40
40 0 40 0 0 80 0 80 -80 0 -80 0 0 -40 0 -40 -40 0 -40 0 0 40 0 40 40 0 40 0
0 40 0 40 80 0 80 0 0 80 0 80 40 0 40 0 0 -40z m640 -240 l0 -40 -40 0 -40 0
0 40 0 40 40 0 40 0 0 -40z m-1760 -80 l0 -40 -40 0 -40 0 0 40 0 40 40 0 40
0 0 -40z m-160 -240 l0 -40 -40 0 -40 0 0 40 0 40 40 0 40 0 0 -40z m400 0 l0
-40 -40 0 -40 0 0 40 0 40 40 0 40 0 0 -40z m960 0 l0 -40 40 0 40 0 0 -40 0
-40 -40 0 -40 0 0 40 0 40 -40 0 -40 0 0 40 0 40 40 0 40 0 0 -40z m560 -40
l0 -80 -40 0 -40 0 0 -80 0 -80 -120 0 -120 0 0 -40 0 -40 40 0 40 0 0 -40 0
-40 -40 0 -40 0 0 40 0 40 -40 0 -40 0 0 160 0 160 80 0 80 0 0 -80 0 -80 40
0 40 0 0 80 0 80 40 0 40 0 0 40 0 40 40 0 40 0 0 -80z m-1520 -280 l0 -40
-80 0 -80 0 0 40 0 40 80 0 80 0 0 -40z m1440 -80 l0 -40 -40 0 -40 0 0 40 0
40 40 0 40 0 0 -40z m-80 -320 l0 -120 -120 0 -120 0 0 120 0 120 120 0 120 0
0 -120z m160 40 l0 -80 -40 0 -40 0 0 80 0 80 40 0 40 0 0 -80z m-880 -80 l0
-80 -80 0 -80 0 0 40 0 40 40 0 40 0 0 40 0 40 40 0 40 0 0 -80z m640 -200 l0
-40 -80 0 -80 0 0 -40 0 -40 80 0 80 0 0 -40 0 -40 -80 0 -80 0 0 40 0 40 -40
0 -40 0 0 80 0 80 120 0 120 0 0 -40z m320 -120 l0 -80 -40 0 -40 0 0 80 0 80
40 0 40 0 0 -80z"/>
<path d="M1200 1880 l0 -40 -40 0 -40 0 0 -40 0 -40 40 0 40 0 0 -40 0 -40
-80 0 -80 0 0 -40 0 -40 80 0 80 0 0 -40 0 -40 40 0 40 0 0 -40 0 -40 40 0 40
0 0 40 0 40 40 0 40 0 0 40 0 40 -40 0 -40 0 0 40 0 40 -40 0 -40 0 0 40 0 40
-40 0 -40 0 0 40 0 40 40 0 40 0 0 40 0 40 -40 0 -40 0 0 -40z m160 -320 l0
-40 -40 0 -40 0 0 40 0 40 40 0 40 0 0 -40z"/>
<path d="M1040 1440 l0 -80 40 0 40 0 0 80 0 80 -40 0 -40 0 0 -80z"/>
<path d="M1280 1160 l0 -40 40 0 40 0 0 40 0 40 -40 0 -40 0 0 -40z"/>
<path d="M2080 840 l0 -40 40 0 40 0 0 40 0 40 -40 0 -40 0 0 -40z"/>
<path d="M1760 2600 l0 -40 120 0 120 0 0 40 0 40 -120 0 -120 0 0 -40z"/>
<path d="M2080 2360 l0 -280 280 0 280 0 0 280 0 280 -280 0 -280 0 0 -280z
m480 0 l0 -200 -200 0 -200 0 0 200 0 200 200 0 200 0 0 -200z"/>
<path d="M2240 2360 l0 -120 120 0 120 0 0 120 0 120 -120 0 -120 0 0 -120z"/>
<path d="M2160 1720 l0 -40 40 0 40 0 0 40 0 40 -40 0 -40 0 0 -40z"/>
<path d="M2560 1080 l0 -40 40 0 40 0 0 40 0 40 -40 0 -40 0 0 -40z"/>
<path d="M1600 1000 l0 -40 40 0 40 0 0 40 0 40 -40 0 -40 0 0 -40z"/>
<path d="M320 600 l0 -280 280 0 280 0 0 280 0 280 -280 0 -280 0 0 -280z
m480 0 l0 -200 -200 0 -200 0 0 200 0 200 200 0 200 0 0 -200z"/>
<path d="M480 600 l0 -120 120 0 120 0 0 120 0 120 -120 0 -120 0 0 -120z"/>
</g>
</svg>
