<?xml version="1.0" standalone="no"?>
<!DOCTYPE svg PUBLIC "-//W3C//DTD SVG 20010904//EN"
 "http://www.w3.org/TR/2001/REC-SVG-20010904/DTD/svg10.dtd">
<svg version="1.0" xmlns="http://www.w3.org/2000/svg"
 width="328.000000pt" height="328.000000pt" viewBox="0 0 328.000000 328.000000"
 preserveAspectRatio="xMidYMid meet">

<g transform="translate(0.000000,328.000000) scale(0.100000,-0.100000)"
fill="#000000" stroke="none">
<path d="M320 2680 l0 -280 280 0 280 0 0 280 0 280 -280 0 -280 0 0 -280z
m480 0 l0 -200 -200 0 -200 0 0 200 0 200 200 0 200 0 0 -200z"/>
<path d="M480 2680 l0 -120 120 0 120 0 0 120 0 120 -120 0 -120 0 0 -120z"/>
<path d="M1040 2920 l0 -40 80 0 80 0 0 -40 0 -40 -80 0 -80 0 0 -40 0 -40
-40 0 -40 0 0 -80 0 -80 40 0 40 0 0 -40 0 -40 -40 0 -40 0 0 -40 0 -40 40 0
40 0 0 -80 0 -80 -40 0 -40 0 0 40 0 40 -120 0 -120 0 0 -40 0 -40 -40 0 -40
0 0 -40 0 -40 40 0 40 0 0 -40 0 -40 -80 0 -80 0 0 80 0 80 -40 0 -40 0 0 40
0 40 -80 0 -80 0 0 -40 0 -40 40 0 40 0 0 -40 0 -40 -40 0 -40 0 0 -120 0
-120 120 0 120 0 0 -40 0 -40 -80 0 -80 0 0 -40 0 -40 -40 0 -40 0 0 -40 0
-40 80 0 80 0 0 -40 0 -40 -40 0 -40 0 0 -40 0 -40 40 0 40 0 0 -80 0 -80 40
0 40 0 0 40 0 40 40 0 40 0 0 40 0 40 -40 0 -40 0 0 40 0 40 80 0 80 0 0 -40
0 -40 40 0 40 0 0 -40 0 -40 -40 0 -40 0 0 -40 0 -40 -40 0 -40 0 0 -40 0 -40
-40 0 -40 0 0 -40 0 -40 -40 0 -40 0 0 -80 0 -80 -40 0 -40 0 0 120 0 120 -40
0 -40 0 0 -160 0 -160 120 0 120 0 0 120 0 120 80 0 80 0 0 -80 0 -80 -40 0
-40 0 0 -40 0 -40 120 0 120 0 0 40 0 40 40 0 40 0 0 -160 0 -160 40 0 40 0 0
160 0 160 40 0 40 0 0 -40 0 -40 160 0 160 0 0 80 0 80 80 0 80 0 0 -40 0 -40
-40 0 -40 0 0 -40 0 -40 40 0 40 0 0 -40 0 -40 -40 0 -40 0 0 -40 0 -40 40 0
40 0 0 40 0 40 40 0 40 0 0 -40 0 -40 80 0 80 0 0 40 0 40 40 0 40 0 0 -40 0
-40 80 0 80 0 0 -40 0 -40 80 0 80 0 0 -40 0 -40 -240 0 -240 0 0 -40 0 -40
-40 0 -40 0 0 40 0 40 -40 0 -40 0 0 40 0 40 -40 0 -40 0 0 -40 0 -40 -120 0
-120 0 0 80 0 80 40 0 40 0 0 40 0 40 -120 0 -120 0 0 -40 0 -40 40 0 40 0 0
-40 0 -40 -40 0 -40 0 0 -40 0 -40 -40 0 -40 0 0 -40 0 -40 40 0 40 0 0 -40 0
-40 -80 0 -80 0 0 -80 0 -80 40 0 40 0 0 40 0 40 40 0 40 0 0 -40 0 -40 40 0
40 0 0 80 0 80 40 0 40 0 0 -80 0 -80 40 0 40 0 0 40 0 40 40 0 40 0 0 -40 0
-40 40 0 40 0 0 40 0 40 80 0 80 0 0 -40 0 -40 40 0 40 0 0 40 0 40 -40 0 -40
0 0 40 0 40 160 0 160 0 0 40 0 40 40 0 40 0 0 -40 0 -40 40 0 40 0 0 40 0 40
40 0 40 0 0 -40 0 -40 40 0 40 0 0 -40 0 -40 -160 0 -160 0 0 -40 0 -40 160 0
160 0 0 40 0 40 40 0 40 0 0 -40 0 -40 40 0 40 0 0 120 0 120 -40 0 -40 0 0
40 0 40 80 0 80 0 0 -80 0 -80 40 0 40 0 0 -80 0 -80 40 0 40 0 0 40 0 40 40
0 40 0 0 -40 0 -40 40 0 40 0 0 40 0 40 -40 0 -40 0 0 40 0 40 80 0 80 0 0
120 0 120 -80 0 -80 0 0 40 0 40 40 0 40 0 0 80 0 80 40 0 40 0 0 80 0 80 -40
0 -40 0 0 40 0 40 40 0 40 0 0 80 0 80 -40 0 -40 0 0 40 0 40 40 0 40 0 0 40
0 40 -40 0 -40 0 0 -40 0 -40 -80 0 -80 0 0 40 0 40 -120 0 -120 0 0 40 0 40
120 0 120 0 0 40 0 40 40 0 40 0 0 -40 0 -40 40 0 40 0 0 40 0 40 -40 0 -40 0
0 40 0 40 40 0 40 0 0 40 0 40 -40 0 -40 0 0 40 0 40 40 0 40 0 0 80 0 80
-120 0 -120 0 0 80 0 80 40 0 40 0 0 40 0 40 -80 0 -80 0 0 -40 0 -40 -40 0
-40 0 0 -40 0 -40 -40 0 -40 0 0 -40 0 -40 -40 0 -40 0 0 40 0 40 -40 0 -40 0
0 40 0 40 40 0 40 0 0 120 0 120 -40 0 -40 0 0 -40 0 -40 -40 0 -40 0 0 40 0
40 -40 0 -40 0 0 40 0 40 120 0 120 0 0 40 0 40 -40 0 -40 0 0 40 0 40 40 0
40 0 0 40 0 40 -80 0 -80 0 0 40 0 40 40 0 40 0 0 40 0 40 -40 0 -40 0 0 -40
0 -40 -40 0 -40 0 0 40 0 40 -40 0 -40 0 0 -40 0 -40 -40 0 -40 0 0 -40 0 -40
40 0 40 0 0 -40 0 -40 -40 0 -40 0 0 -40 0 -40 -40 0 -40 0 0 -40 0 -40 40 0
40 0 0 -120 0 -120 -40 0 -40 0 0 80 0 80 -40 0 -40 0 0 -80 0 -80 40 0 40 0
0 -80 0 -80 40 0 40 0 0 -40 0 -40 -40 0 -40 0 0 -80 0 -80 40 0 40 0 0 -80 0
-80 -40 0 -40 0 0 40 0 40 -80 0 -80 0 0 80 0 80 -40 0 -40 0 0 -40 0 -40 -40
0 -40 0 0 80 0 80 80 0 80 0 0 40 0 40 -40 0 -40 0 0 120 0 120 40 0 40 0 0
120 0 120 40 0 40 0 0 40 0 40 40 0 40 0 0 80 0 80 -40 0 -40 0 0 40 0 40 -40
0 -40 0 0 -40 0 -40 -40 0 -40 0 0 -40 0 -40 -80 0 -80 0 0 80 0 80 -40 0 -40
0 0 -40 0 -40 -40 0 -40 0 0 40 0 40 -120 0 -120 0 0 -40z m1040 -80 l0 -40
40 0 40 0 0 -40 0 -40 -40 0 -40 0 0 40 0 40 -40 0 -40 0 0 40 0 40 40 0 40 0
0 -40z m-640 -80 l0 -40 -40 0 -40 0 0 -40 0 -40 -40 0 -40 0 0 -40 0 -40 40
0 40 0 0 -40 0 -40 40 0 40 0 0 40 0 40 40 0 40 0 0 80 0 80 40 0 40 0 0 -160
0 -160 -40 0 -40 0 0 40 0 40 -40 0 -40 0 0 -80 0 -80 40 0 40 0 0 -120 0
-120 -40 0 -40 0 0 -40 0 -40 -40 0 -40 0 0 -40 0 -40 -40 0 -40 0 0 -40 0
-40 40 0 40 0 0 -40 0 -40 -40 0 -40 0 0 -80 0 -80 40 0 40 0 0 40 0 40 40 0
40 0 0 -40 0 -40 40 0 40 0 0 -40 0 -40 -120 0 -120 0 0 -40 0 -40 80 0 80 0
0 -40 0 -40 40 0 40 0 0 40 0 40 40 0 40 0 0 40 0 40 40 0 40 0 0 40 0 40 40
0 40 0 0 40 0 40 -80 0 -80 0 0 80 0 80 40 0 40 0 0 -40 0 -40 80 0 80 0 0
-80 0 -80 -40 0 -40 0 0 -40 0 -40 40 0 40 0 0 -40 0 -40 40 0 40 0 0 -40 0
-40 40 0 40 0 0 40 0 40 40 0 40 0 0 -40 0 -40 80 0 80 0 0 120 0 120 80 0 80
0 0 40 0 40 -80 0 -80 0 0 40 0 40 -80 0 -80 0 0 -40 0 -40 -40 0 -40 0 0 -40
0 -40 80 0 80 0 0 -40 0 -40 -80 0 -80 0 0 40 0 40 -40 0 -40 0 0 80 0 80 80
0 80 0 0 40 0 40 -40 0 -40 0 0 40 0 40 -40 0 -40 0 0 80 0 80 40 0 40 0 0 40
0 40 -40 0 -40 0 0 80 0 80 40 0 40 0 0 80 0 80 40 0 40 0 0 -40 0 -40 40 0
40 0 0 -40 0 -40 -80 0 -80 0 0 -40 0 -40 80 0 80 0 0 -40 0 -40 40 0 40 0 0
-40 0 -40 -40 0 -40 0 0 40 0 40 -40 0 -40 0 0 -80 0 -80 40 0 40 0 0 -40 0
-40 -40 0 -40 0 0 -40 0 -40 80 0 80 0 0 80 0 80 80 0 80 0 0 40 0 40 40 0 40
0 0 40 0 40 40 0 40 0 0 -40 0 -40 40 0 40 0 0 -40 0 -40 40 0 40 0 0 -80 0
-80 40 0 40 0 0 -40 0 -40 -40 0 -40 0 0 -40 0 -40 -40 0 -40 0 0 40 0 40 -40
0 -40 0 0 -40 0 -40 -40 0 -40 0 0 -40 0 -40 -40 0 -40 0 0 -40 0 -40 40 0 40
0 0 -160 0 -160 80 0 80 0 0 -80 0 -80 -40 0 -40 0 0 40 0 40 -40 0 -40 0 0
-40 0 -40 -160 0 -160 0 0 -40 0 -40 -40 0 -40 0 0 -40 0 -40 40 0 40 0 0 -40
0 -40 -40 0 -40 0 0 40 0 40 -40 0 -40 0 0 40 0 40 40 0 40 0 0 40 0 40 -40 0
-40 0 0 40 0 40 -40 0 -40 0 0 -80 0 -80 -40 0 -40 0 0 -40 0 -40 -80 0 -80 0
0 120 0 120 -40 0 -40 0 0 120 0 120 -40 0 -40 0 0 -80 0 -80 -40 0 -40 0 0
40 0 40 -80 0 -80 0 0 -40 0 -40 40 0 40 0 0 -40 0 -40 -40 0 -40 0 0 -40 0
-40 -40 0 -40 0 0 40 0 40 -80 0 -80 0 0 -40 0 -40 -40 0 -40 0 0 40 0 40 40
0 40 0 0 40 0 40 40 0 40 0 0 40 0 40 -80 0 -80 0 0 -40 0 -40 -80 0 -80 0 0
40 0 40 -40 0 -40 0 0 40 0 40 40 0 40 0 0 40 0 40 40 0 40 0 0 -40 0 -40 40
0 40 0 0 40 0 40 40 0 40 0 0 80 0 80 -80 0 -80 0 0 -40 0 -40 -40 0 -40 0 0
40 0 40 40 0 40 0 0 40 0 40 -200 0 -200 0 0 40 0 40 40 0 40 0 0 40 0 40 40
0 40 0 0 40 0 40 -40 0 -40 0 0 40 0 40 40 0 40 0 0 -40 0 -40 40 0 40 0 0 40
0 40 40 0 40 0 0 40 0 40 80 0 80 0 0 40 0 40 -80 0 -80 0 0 40 0 40 80 0 80
0 0 -40 0 -40 40 0 40 0 0 40 0 40 40 0 40 0 0 -40 0 -40 40 0 40 0 0 80 0 80
-40 0 -40 0 0 40 0 40 -40 0 -40 0 0 40 0 40 40 0 40 0 0 -40 0 -40 40 0 40 0
0 120 0 120 40 0 40 0 0 80 0 80 80 0 80 0 0 -40z m320 0 l0 -40 -40 0 -40 0
0 40 0 40 40 0 40 0 0 -40z m-640 -120 l0 -80 -40 0 -40 0 0 80 0 80 40 0 40
0 0 -80z m960 -40 l0 -40 -40 0 -40 0 0 40 0 40 40 0 40 0 0 -40z m-1600 -520
l0 -80 -40 0 -40 0 0 80 0 80 40 0 40 0 0 -80z m1040 -200 l0 -40 -40 0 -40 0
0 40 0 40 40 0 40 0 0 -40z m1120 -480 l0 -40 -40 0 -40 0 0 40 0 40 40 0 40
0 0 -40z m240 -120 l0 -80 -40 0 -40 0 0 80 0 80 40 0 40 0 0 -80z m-2000
-200 l0 -40 -40 0 -40 0 0 40 0 40 40 0 40 0 0 -40z m2000 -80 l0 -40 -40 0
-40 0 0 -80 0 -80 -80 0 -80 0 0 40 0 40 40 0 40 0 0 80 0 80 80 0 80 0 0 -40z
m-320 -160 l0 -120 -120 0 -120 0 0 120 0 120 120 0 120 0 0 -120z m240 -200
l0 -80 -40 0 -40 0 0 -40 0 -40 -40 0 -40 0 0 120 0 120 80 0 80 0 0 -80z
m-1520 -40 l0 -40 120 0 120 0 0 -80 0 -80 -40 0 -40 0 0 40 0 40 -80 0 -80 0
0 40 0 40 -40 0 -40 0 0 40 0 40 40 0 40 0 0 -40z"/>
<path d="M1280 2360 l0 -120 40 0 40 0 0 -40 0 -40 -80 0 -80 0 0 -40 0 -40
-40 0 -40 0 0 40 0 40 -40 0 -40 0 0 -40 0 -40 -40 0 -40 0 0 -40 0 -40 40 0
40 0 0 -80 0 -80 80 0 80 0 0 80 0 80 40 0 40 0 0 40 0 40 80 0 80 0 0 120 0
120 -40 0 -40 0 0 80 0 80 -40 0 -40 0 0 -120z m-160 -320 l0 -40 -40 0 -40 0
0 40 0 40 40 0 40 0 0 -40z"/>
<path d="M2480 2040 l0 -40 -40 0 -40 0 0 -40 0 -40 40 0 40 0 0 -80 0 -80 40
0 40 0 0 80 0 80 40 0 40 0 0 40 0 40 -40 0 -40 0 0 40 0 40 -40 0 -40 0 0
-40z m80 -80 l0 -40 -40 0 -40 0 0 40 0 40 40 0 40 0 0 -40z"/>
<path d="M800 1960 l0 -40 -40 0 -40 0 0 -40 0 -40 -40 0 -40 0 0 -40 0 -40
40 0 40 0 0 40 0 40 40 0 40 0 0 -40 0 -40 40 0 40 0 0 40 0 40 40 0 40 0 0
40 0 40 -40 0 -40 0 0 40 0 40 -40 0 -40 0 0 -40z m80 -80 l0 -40 -40 0 -40 0
0 40 0 40 40 0 40 0 0 -40z"/>
<path d="M2000 1960 l0 -40 40 0 40 0 0 40 0 40 -40 0 -40 0 0 -40z"/>
<path d="M2320 1800 l0 -40 40 0 40 0 0 40 0 40 -40 0 -40 0 0 -40z"/>
<path d="M2640 1800 l0 -40 40 0 40 0 0 40 0 40 -40 0 -40 0 0 -40z"/>
<path d="M960 1720 l0 -40 40 0 40 0 0 -40 0 -40 80 0 80 0 0 40 0 40 -80 0
-80 0 0 40 0 40 -40 0 -40 0 0 -40z"/>
<path d="M1120 1480 l0 -40 -40 0 -40 0 0 -40 0 -40 80 0 80 0 0 -40 0 -40 40
0 40 0 0 80 0 80 -40 0 -40 0 0 40 0 40 -40 0 -40 0 0 -40z"/>
<path d="M1680 1480 l0 -40 -40 0 -40 0 0 -40 0 -40 40 0 40 0 0 -40 0 -40 40
0 40 0 0 40 0 40 -40 0 -40 0 0 40 0 40 40 0 40 0 0 40 0 40 -40 0 -40 0 0
-40z"/>
<path d="M2320 1440 l0 -80 40 0 40 0 0 80 0 80 -40 0 -40 0 0 -80z"/>
<path d="M800 1320 l0 -40 40 0 40 0 0 40 0 40 -40 0 -40 0 0 -40z"/>
<path d="M1840 1280 l0 -80 -80 0 -80 0 0 -40 0 -40 40 0 40 0 0 -40 0 -40 40
0 40 0 0 80 0 80 40 0 40 0 0 80 0 80 -40 0 -40 0 0 -80z"/>
<path d="M2000 1240 l0 -40 40 0 40 0 0 40 0 40 -40 0 -40 0 0 -40z"/>
<path d="M2160 1240 l0 -40 40 0 40 0 0 -40 0 -40 40 0 40 0 0 40 0 40 -40 0
-40 0 0 40 0 40 -40 0 -40 0 0 -40z"/>
<path d="M2080 1080 l0 -40 40 0 40 0 0 40 0 40 -40 0 -40 0 0 -40z"/>
<path d="M2400 840 l0 -40 40 0 40 0 0 40 0 40 -40 0 -40 0 0 -40z"/>
<path d="M2400 2680 l0 -280 280 0 280 0 0 280 0 280 -280 0 -280 0 0 -280z
m480 0 l0 -200 -200 0 -200 0 0 200 0 200 200 0 200 0 0 -200z"/>
<path d="M2560 2680 l0 -120 120 0 120 0 0 120 0 120 -120 0 -120 0 0 -120z"/>
<path d="M2800 2200 l0 -40 40 0 40 0 0 40 0 40 -40 0 -40 0 0 -40z"/>
<path d="M320 1400 l0 -40 40 0 40 0 0 40 0 40 -40 0 -40 0 0 -40z"/>
<path d="M320 600 l0 -280 280 0 280 0 0 280 0 280 -280 0 -280 0 0 -280z
m480 0 l0 -200 -200 0 -200 0 0 200 0 200 200 0 200 0 0 -200z"/>
<path d="M480 600 l0 -120 120 0 120 0 0 120 0 120 -120 0 -120 0 0 -120z"/>
<path d="M1840 360 l0 -40 40 0 40 0 0 40 0 40 -40 0 -40 0 0 -40z"/>
</g>
</svg>
